<?xml version="1.0" encoding="UTF-8" standalone="no"?>
<!-- Created with Inkscape (http://www.inkscape.org/) -->

<svg
   version="1.1"
   id="svg1099"
   width="300"
   height="300"
   viewBox="0 0 300 300"
   sodipodi:docname="idea.svg"
   inkscape:version="1.2.2 (732a01da63, 2022-12-09)"
   xmlns:inkscape="http://www.inkscape.org/namespaces/inkscape"
   xmlns:sodipodi="http://sodipodi.sourceforge.net/DTD/sodipodi-0.dtd"
   xmlns="http://www.w3.org/2000/svg"
   xmlns:svg="http://www.w3.org/2000/svg">
  <defs
     id="defs1103" />
  <sodipodi:namedview
     id="namedview1101"
     pagecolor="#ffffff"
     bordercolor="#000000"
     borderopacity="0.25"
     inkscape:showpageshadow="2"
     inkscape:pageopacity="0.0"
     inkscape:pagecheckerboard="0"
     inkscape:deskcolor="#d1d1d1"
     showgrid="false"
     inkscape:zoom="1.5488281"
     inkscape:cx="225.33166"
     inkscape:cy="204.9937"
     inkscape:window-width="1920"
     inkscape:window-height="996"
     inkscape:window-x="-8"
     inkscape:window-y="-8"
     inkscape:window-maximized="1"
     inkscape:current-layer="g1105" />
  <g
     inkscape:groupmode="layer"
     inkscape:label="Image"
     id="g1105">
    <path
       style="fill:#424242;stroke-width:0.585938;fill-opacity:1"
       d="m 121.02932,296.88022 c -1.22764,-1.7527 -1.14804,-3.14934 0.25974,-4.55712 l 1.17188,-1.17188 h 28.09177 28.09178 l 0.91213,1.30226 c 1.2142,1.73352 1.15263,3.5719 -0.1594,4.75927 -0.96582,0.87406 -3.85284,0.96972 -29.26365,0.96972 h -28.19212 z m -11.45901,-16.86181 c -1.46239,-1.46239 -1.5066,-3.61701 -0.10035,-4.88965 0.97499,-0.88235 4.66658,-0.96972 40.97378,-0.96972 43.88356,0 41.74376,-0.18066 41.74376,3.52425 0,3.62361 1.39741,3.507 -42.02491,3.507 h -39.4204 z m -4.67777,-16.57383 c -2.48318,-1.2564 -2.94134,-3.78179 -0.99052,-5.45981 l 1.63208,-1.40386 h 45.08451 45.08451 l 1.17188,1.17188 c 1.92991,1.92991 1.49653,4.4645 -0.98687,5.77166 -1.92761,1.01461 -88.98345,0.93821 -90.99559,-0.0799 z m -5.40031,-17.85 C 98.81507,244.80973 98.44782,241.614 97.92669,231.97154 96.32922,202.41331 92.76472,190.72659 79.16178,170.4481 52.89634,131.29306 66.01707,79.137932 108.20531,54.999669 183.70974,11.799343 269.5143,99.134482 221.64915,170.4671 c -13.80374,20.57149 -17.78349,34.03969 -18.83868,63.75351 -0.34403,9.68763 -0.49291,10.82657 -1.5127,11.57227 -1.92778,1.40962 -100.58403,1.21746 -101.80554,-0.1983 z m 95.83481,-8.20312 c 0.19975,-1.2085 0.36863,-4.30664 0.37528,-6.88477 0.0614,-23.81057 5.96588,-43.19807 19.08706,-62.67281 C 235.97196,136.39423 231.6108,98.606382 203.75784,72.249539 138.6018,10.59333 36.01187,92.973952 85.53784,167.18126 c 14.13096,21.17314 18.11408,34.20227 19.67257,64.35082 l 0.41648,8.05664 h 44.66848 44.66849 z m -31.13038,-40.44201 c -0.57074,-0.57074 -1.38848,-2.80242 -1.8172,-4.95928 -1.24528,-6.26504 -3.47274,-9.31043 -11.51029,-15.73696 -3.86632,-3.09137 -8.15498,-7.07927 -9.53035,-8.86201 l -2.50068,-3.24134 -2.47571,0.85773 c -5.33681,1.84899 -13.68324,0.0835 -18.61155,-3.93677 -1.40216,-1.14382 -1.61095,-1.16173 -3.64329,-0.31257 -4.53091,1.89314 -9.28635,0.89841 -13.12922,-2.7463 -1.01952,-0.96695 -2.11809,-1.59467 -2.44127,-1.39493 -5.75221,3.55505 -14.97706,-8.10415 -12.11137,-15.30745 0.83396,-2.09627 0.80402,-2.35638 -0.58594,-5.09163 -2.57647,-5.07013 -1.89115,-11.14398 1.74379,-15.45494 1.47608,-1.7506 1.63507,-2.38508 1.70012,-6.78497 0.0951,-6.43033 1.97191,-9.80284 6.8129,-12.24226 2.33081,-1.17452 3.43674,-2.145188 4.0055,-3.515618 1.96611,-4.73736 6.24602,-8.00099 11.68147,-8.9077 1.94874,-0.32507 3.18694,-1.0947 5.5664,-3.45989 4.15296,-4.12804 9.44181,-5.55163 14.31451,-3.85299 1.54682,0.53922 2.13963,0.37873 4.86969,-1.31836 4.51991,-2.80974 10.65668,-2.83232 15.12341,-0.0557 l 3.01896,1.87669 2.20153,-0.91986 c 4.48587,-1.87432 12.12006,-0.0295 15.54669,3.75688 0.84582,0.93462 1.57557,1.09366 3.96494,0.86407 5.138,-0.4937 11.6446,3.11856 13.44453,7.46396 0.59951,1.44733 1.21249,1.8258 3.84092,2.37146 5.70398,1.18414 10.08082,5.587998 10.65992,10.725708 0.27321,2.42394 0.54954,2.81489 3.11833,4.41174 4.55214,2.82977 6.5522,6.82242 6.21002,12.39688 -0.23437,3.81808 -0.0773,4.79532 1.19748,7.44992 3.59118,7.47838 0.16939,17.14295 -6.94801,19.62409 -1.09694,0.3824 -1.78711,1.11495 -2.01139,2.13493 -2.63453,11.98125 -12.08714,21.33389 -22.93131,22.68878 l -3.24438,0.40536 0.39261,6.51447 c 0.21594,3.58296 0.53324,7.31258 0.70512,8.28803 0.39431,2.23784 -1.57063,4.96475 -3.57745,4.96475 -2.65104,0 -3.62572,-2.26694 -4.08904,-9.5103 -0.69009,-10.78882 -0.74107,-10.9484 -3.87854,-12.13848 -5.27895,-2.00236 -15.76289,-10.65529 -15.76289,-13.00991 0,-0.72121 -5.84868,-0.0795 -6.71141,0.7364 -0.73556,0.69562 3.32426,4.84421 9.42489,9.63099 9.27288,7.27584 13.65975,14.53504 13.68582,22.64675 0.011,3.43403 -3.4493,5.21955 -5.71826,2.95059 z m 20.5083,-29.42474 c 6.34407,-1.95948 10.81097,-6.07641 13.10205,-12.07553 1.32889,-3.47963 2.78894,-3.4918 -17.93607,0.14951 -21.10657,3.70834 -19.20987,3.12598 -17.53949,5.38529 4.65843,6.30087 14.15841,9.07811 22.37351,6.54073 z m -48.00949,-10.55259 c 2.83086,-1.93974 4.92409,-5.3703 5.40345,-8.85563 0.29694,-2.15904 0.76366,-3.15105 1.80285,-3.83195 3.99941,-2.62051 6.86815,2.84343 4.59839,8.75831 -0.27901,0.72708 0.10874,0.77895 2.48897,0.33295 10.98632,-2.05859 45.92375,-8.18325 49.97269,-8.7604 6.22213,-0.88692 8.21916,-2.46576 8.21568,-6.49528 -0.005,-5.55597 -3.68005,-8.13859 -9.4251,-6.62307 l -3.00348,0.7923 -1.44092,-1.44092 c -3.62578,-3.62578 3.53034,-8.56962 10.03959,-6.9359 1.31424,0.32985 1.48835,0.19135 1.48835,-1.18391 0,-5.89258 -7.03622,-8.75193 -11.75852,-4.77838 -2.67938,2.25455 -6.40555,0.92823 -6.40555,-2.28002 0,-1.70423 4.61565,-5.92203 7.0707,-6.46125 1.91723,-0.42109 2.02423,-0.72974 1.01835,-2.9374 -2.25815,-4.95613 -11.40239,-4.01485 -12.48147,1.28479 -0.7429,3.64858 -1.24829,4.58887 -2.75034,5.11711 -5.96214,2.09677 -6.15748,-8.38412 -0.25289,-13.568418 2.49814,-2.1934 2.26595,-3.53247 -0.89602,-5.16759 -3.9018,-2.0177 -8.76443,0.78831 -9.56363,5.51875 -0.98115,5.807388 -7.34001,5.174568 -7.34001,-0.73045 0,-0.74509 0.78357,-2.90798 1.74126,-4.80642 l 1.74126,-3.45171 -1.1716,-1.17188 c -1.62117,-1.62155 -5.76432,-1.59048 -7.98084,0.0598 -1.59957,1.19098 -2.1288,2.25281 -2.81388,5.64563 -0.49408,2.4469 -2.9498,3.83592 -4.87207,2.75576 -2.03202,-1.14183 -2.57376,-3.51723 -1.56589,-6.86613 0.97874,-3.25209 0.21478,-4.5558 -3.02593,-5.16376 -4.2174,-0.79119 -7.39463,1.4674 -8.07826,5.74259 -0.94223,5.89238 -7.37249,5.42545 -7.37249,-0.53534 0,-3.3056 -4.46586,-3.41523 -7.69226,-0.18882 -3.5055,3.5055 -2.10015,7.91638 3.79389,11.907658 3.75525,2.54294 0.42205,7.37128 -3.943,5.71169 -3.59004,-1.36493 -8.56487,-7.49264 -8.56487,-10.549688 0,-1.78696 -2.9538,-1.59725 -4.8634,0.31236 -4.01399,4.013978 -2.19776,10.035008 3.45651,11.458758 4.40755,1.10984 5.55682,4.57319 2.23896,6.74714 -3.03145,1.98628 -9.77683,-1.14231 -12.81047,-5.94166 -1.90863,-3.01954 -2.0017,-3.05579 -3.72434,-1.45091 -4.80433,4.47592 -0.81974,12.18784 5.93257,11.48208 4.07533,-0.42596 5.6686,0.47302 5.6686,3.19843 0,4.09792 -7.99794,5.62729 -13.66646,2.61331 l -2.70819,-1.43996 -0.89471,1.27737 c -1.68374,2.40388 -1.16455,6.13739 1.17945,8.48139 l 2.07416,2.07416 4.16509,-0.3871 c 5.42576,-0.50428 7.3567,0.98053 5.97106,4.59145 -0.81895,2.13414 -6.25525,3.61068 -10.10725,2.7452 -2.03797,-0.4579 -2.42955,-0.38738 -2.70724,0.48758 -1.13286,3.56929 3.25859,6.56315 6.82625,4.6538 1.88283,-1.00766 3.66463,-0.17801 5.09908,2.37425 3.16123,5.62466 9.31419,4.25891 8.719,-1.93532 -0.62734,-6.52895 5.73615,-7.68544 7.17473,-1.30391 0.28614,1.26931 0.36972,3.06051 0.18574,3.98043 -1.07061,5.35299 10.17068,9.00525 15.81445,5.13808 z m 22.80991,-9.11584 c -7.0752,-4.95566 9.65553,-14.88897 17.26387,-10.24984 4.99483,3.04556 2.6616,8.44731 -2.8229,6.5354 -3.7723,-1.31503 -5.69618,-0.86522 -8.51087,1.98985 -2.79354,2.83363 -3.89104,3.1528 -5.9301,1.72459 z m -30.8921,-1.97951 c -7.41537,-1.80526 -13.82212,-11.85189 -10.27982,-16.12011 2.11016,-2.54259 6.47123,-0.26448 6.47123,3.38041 0,2.42045 3.13465,5.37407 6.22273,5.86335 2.78179,0.44076 3.88469,1.49932 3.88469,3.72853 0,2.86421 -2.44491,4.08605 -6.29883,3.14782 z m 25.19531,-11.67509 c -0.96679,-0.59719 -2.22963,-1.61722 -2.80631,-2.26675 l -1.04851,-1.18097 -3.34603,1.37613 c -5.58318,2.29622 -8.91243,1.46937 -8.91243,-2.21348 0,-1.8457 1.34762,-3.01104 4.53284,-3.91974 3.88826,-1.10927 5.34478,-2.75209 6.04506,-6.8183 1.50744,-8.75293 7.26514,-13.58205 10.69375,-8.96909 1.28017,1.72238 1.26405,1.77021 -1.93664,5.74643 -0.64853,0.80567 -1.47039,3.11991 -1.82637,5.14276 l -0.64723,3.67793 2.70211,2.88877 c 4.49018,4.80037 1.84674,9.80822 -3.45024,6.53631 z m 23.27491,-3.92352 c -1.09585,-0.76757 -1.30225,-1.46083 -1.30225,-4.37415 0,-3.59821 -2.34711,-7.60435 -4.45523,-7.60435 -2.57986,0 -4.05664,-4.28213 -2.09043,-6.06153 4.49202,-4.06522 13.82803,4.60306 13.82803,12.83902 0,4.88287 -2.8703,7.37921 -5.98012,5.20101 z m -43.57132,-13.68483 c -3.853,-3.12078 0.66105,-12.80491 7.24968,-15.55297 4.99251,-2.082328 8.6522,-1.085618 8.6522,2.35642 0,2.28112 -1.69449,3.77007 -4.29053,3.77007 -2.39493,0 -5.67041,3.36617 -5.67041,5.82741 0,3.61432 -3.38804,5.66682 -5.94094,3.59907 z M 1.8915597,152.7351 c -1.46459002,-0.70585 -2.19479002,-2.67417 -1.64023002,-4.42142 0.69648,-2.19441 2.73306002,-2.47496 17.96694032,-2.47496 h 14.6475 l 1.43821,1.43822 c 1.81378,1.81377 1.81378,2.92698 0,4.74076 l -1.43821,1.43821 -14.82156,-0.0396 C 8.5898197,153.39091 2.7406397,153.1443 1.8915597,152.7351 Z M 265.72334,152.04502 c -0.80604,-0.80604 -1.46553,-1.88501 -1.46553,-2.3977 0,-0.5127 0.65949,-1.59166 1.46553,-2.3977 l 1.46552,-1.46552 15.57464,0.1738 c 16.96198,0.18927 17.2365,0.24804 17.2365,3.68942 0,3.44138 -0.27452,3.50014 -17.2365,3.68942 l -15.57464,0.1738 z M 39.55078,90.298592 C 19.20673,78.830452 17.48952,77.323162 21.07322,74.079961 c 2.08585,-1.887668 29.40217,12.429001 30.26364,15.861391 1.31412,5.23586 -2.90473,5.36373 -11.78608,0.35724 z m 209.85644,2.90611 c -2.73957,-3.02719 -1.74756,-3.9705 13.29536,-12.64282 13.09467,-7.549159 14.71773,-8.173206 16.40582,-6.30788 2.81924,3.11523 1.83076,4.15548 -11.15294,11.73709 -15.50547,9.05415 -16.52407,9.4503 -18.54824,7.21361 z M 88.88146,50.652106 C 87.48726,49.257903 73.24219,24.233178 73.24219,23.178145 c 0,-2.690073 4.21848,-4.280998 6.0335,-2.275426 2.27508,2.513935 15.21657,25.715149 15.2355,27.313865 0.0335,2.825301 -3.6475,4.417749 -5.62973,2.435522 z M 206.25,50.330912 c -1.79255,-1.792555 -1.66113,-2.132493 5.95719,-15.408562 9.15545,-15.954771 10.21372,-17.053343 13.37875,-13.888313 1.82397,1.823976 1.62906,2.323335 -6.22242,15.941863 -9.08797,15.763224 -9.88926,16.579271 -13.11352,13.355012 z m -57.42188,-14.47499 c -2.21336,-0.776276 -2.34375,-1.765005 -2.34375,-17.772749 0,-14.3858529 0.0845,-15.6939849 1.07153,-16.5872279 1.41514,-1.28068097 3.78258,-1.23237897 4.99,0.101808 1.26734,1.400391 1.48319,31.4497319 0.2373,33.0346599 -0.85684,1.090016 -2.70529,1.661836 -3.95508,1.223509 z"
       id="path2306" />
  </g>
</svg>
