<svg width="40" height="40" viewBox="0 0 40 40" fill="none" xmlns="http://www.w3.org/2000/svg">
<path d="M24.6606 20.6768C24.0282 20.0443 22.999 20.0443 22.3665 20.6768L21.6747 21.3686C19.9571 20.4326 18.5671 19.0425 17.6309 17.3247L18.3226 16.6329C18.9553 16.0004 18.9553 14.9711 18.3226 14.3386L16.4585 12.4744C15.826 11.8419 14.7968 11.8419 14.1644 12.4744L12.6732 13.9657C11.819 14.8199 11.7763 16.2885 12.5531 18.1011C13.2275 19.6748 14.4618 21.4045 16.0285 22.9713C17.5952 24.5381 19.3248 25.7724 20.8984 26.4469C21.7595 26.8159 22.5428 27 23.2196 27C23.9674 27 24.5852 26.7752 25.0336 26.3268L26.5248 24.8353V24.8355C26.8313 24.529 27 24.1217 27 23.6884C27 23.2549 26.8313 22.8475 26.5248 22.5412L24.6606 20.6768ZM23.8577 25.1509C23.6139 25.3947 22.8642 25.4801 21.5536 24.9186C20.1697 24.3254 18.625 23.2161 17.2043 21.7954C15.7836 20.3746 14.6746 18.8301 14.0815 17.446C13.5198 16.1354 13.6052 15.3854 13.849 15.1416L15.3117 13.6789L17.1183 15.4858L16.2524 16.3519C15.8609 16.7434 15.7663 17.3372 16.0175 17.8296C17.1559 20.062 18.9376 21.8438 21.1699 22.9823C21.6624 23.2335 22.2562 23.1391 22.6477 22.7474L23.5136 21.8815L25.3204 23.6884L23.8577 25.1509Z" fill="#969186"/>
<path d="M0.5 18.1818C0.5 8.41642 8.41642 0.5 18.1818 0.5H20C30.7696 0.5 39.5 9.23045 39.5 20C39.5 30.7696 30.7696 39.5 20 39.5C9.23045 39.5 0.5 30.7696 0.5 20V18.1818Z" stroke="#969186"/>
</svg>
