<?xml version="1.0" encoding="UTF-8" standalone="no"?>
<!-- Created with Inkscape (http://www.inkscape.org/) -->

<svg
   width="300"
   height="300"
   viewBox="0 0 79.374998 79.375"
   version="1.1"
   id="svg5"
   xml:space="preserve"
   inkscape:version="1.2.2 (732a01da63, 2022-12-09)"
   sodipodi:docname="accompaniment.svg"
   xmlns:inkscape="http://www.inkscape.org/namespaces/inkscape"
   xmlns:sodipodi="http://sodipodi.sourceforge.net/DTD/sodipodi-0.dtd"
   xmlns="http://www.w3.org/2000/svg"
   xmlns:svg="http://www.w3.org/2000/svg"><sodipodi:namedview
     id="namedview7"
     pagecolor="#ffffff"
     bordercolor="#000000"
     borderopacity="0.25"
     inkscape:showpageshadow="2"
     inkscape:pageopacity="0.0"
     inkscape:pagecheckerboard="0"
     inkscape:deskcolor="#d1d1d1"
     inkscape:document-units="mm"
     showgrid="false"
     inkscape:zoom="1"
     inkscape:cx="-86"
     inkscape:cy="73"
     inkscape:window-width="1920"
     inkscape:window-height="1057"
     inkscape:window-x="-8"
     inkscape:window-y="-8"
     inkscape:window-maximized="1"
     inkscape:current-layer="layer1" /><defs
     id="defs2" /><g
     inkscape:label="Слой 1"
     inkscape:groupmode="layer"
     id="layer1"><path
       style="fill:#424242;fill-opacity:1;stroke-width:0.155089"
       d="M 5.2862775,69.438877 V 59.504826 H 2.6441154 0.00195225 L 0.05390933,48.755873 C 0.11182377,36.773798 0.05031092,37.481918 1.2292777,35.222534 2.35724,33.060872 4.9053096,31.130653 7.2696574,30.646815 7.7819583,30.541979 10.535977,30.478772 14.591561,30.478772 h 6.500732 v 1.241756 1.241756 h -6.099806 c -3.449373,0 -6.457565,0.06796 -6.9231645,0.156408 -2.4887249,0.472764 -4.5449405,2.396051 -5.201221,4.864975 -0.1683257,0.633242 -0.212863,2.678224 -0.2143194,9.840889 l -0.0018,9.041538 H 3.9691508 5.2863185 V 55.546728 54.227362 H 6.6034863 7.9206542 V 66.800145 79.372928 H 6.6034863 5.2863185 Z m 6.6633195,0 v -9.934051 h 1.317168 1.317168 v 9.934051 9.934051 h -1.317168 -1.317168 z m 6.663319,-2.638732 V 54.227362 h 1.239688 1.239688 v 1.319366 1.319366 h 2.634335 2.634335 v 1.319366 1.319366 h -2.634335 -2.634335 v 9.934051 9.934051 h -1.239688 -1.239688 z m 10.537342,0 V 54.227362 h -2.640444 -2.640443 l 0.0464,-12.378758 0.04639,-12.37876 0.362594,-1.086536 c 0.721895,-2.163222 1.518216,-3.453139 3.11427,-5.044635 1.677731,-1.672943 2.813656,-2.359869 5.042909,-3.049591 l 1.394648,-0.431499 h 5.811035 5.811034 l 1.394649,0.431499 c 2.229252,0.689722 3.365178,1.376648 5.042909,3.049591 1.596054,1.591496 2.392375,2.881413 3.114271,5.044635 l 0.362592,1.086536 0.0464,12.37876 0.0464,12.378758 H 52.865398 50.224955 V 66.800145 79.372928 H 48.985257 47.745569 V 64.161413 48.949898 h 1.239688 1.239688 v 1.319366 1.319366 h 1.403355 1.403355 l -0.05386,-10.748954 c -0.04957,-9.894173 -0.07629,-10.816822 -0.336061,-11.602403 -1.12602,-3.405313 -3.569021,-5.765208 -6.827,-6.594756 -1.343047,-0.341967 -10.911231,-0.341967 -12.254279,0 -3.257979,0.829548 -5.700981,3.189443 -6.827,6.594756 -0.259764,0.785581 -0.286489,1.70823 -0.33606,11.602403 l -0.05386,10.748954 h 1.403356 1.403354 v -1.319366 -1.319366 h 1.239689 1.239687 v 15.211515 15.211515 h -1.239687 -1.239689 z m 9.297656,0 V 54.227362 h 1.239688 1.239687 v 12.572783 12.572783 h -1.239687 -1.239688 z m 19.834998,2.638732 V 59.504826 H 55.648576 53.014241 V 58.18546 56.866094 h 2.634335 2.634336 V 55.546728 54.227362 H 59.5226 60.762287 V 66.800145 79.372928 H 59.5226 58.282912 Z m 6.50836,0 v -9.934051 h 1.317166 1.317169 v 9.934051 9.934051 h -1.317169 -1.317166 z m 6.663319,-2.638732 V 54.227362 h 1.317168 1.317168 v 1.319366 1.319366 h 1.317167 1.317168 l -0.0018,-9.041538 c -0.0014,-7.162665 -0.04599,-9.207647 -0.214321,-9.840889 -0.656279,-2.468924 -2.712495,-4.392211 -5.201219,-4.864975 -0.465596,-0.08845 -3.473788,-0.156408 -6.923159,-0.156408 h -6.099805 v -1.241756 -1.241756 h 6.500731 c 4.055584,0 6.809604,0.06321 7.321903,0.168043 2.36435,0.483838 4.912419,2.414057 6.040381,4.575719 1.178952,2.259384 1.117452,1.551264 1.175367,13.533339 l 0.05196,10.748953 h -2.642164 -2.642161 v 9.934051 9.934051 H 72.771759 71.454591 Z M 10.86487,28.573325 C 8.7009748,27.831644 7.1994634,26.520701 6.2026402,24.50282 5.1014971,22.273761 5.1012821,19.91149 6.2020205,17.67316 c 1.3507489,-2.746729 3.9934385,-4.423757 6.9710285,-4.423757 2.242401,0 4.025593,0.738682 5.60101,2.320207 3.56364,3.577447 2.935624,9.395902 -1.310882,12.145131 -1.907933,1.235214 -4.511179,1.573953 -6.598307,0.858584 z m 4.578229,-2.65672 c 2.694999,-1.23587 3.807944,-4.344465 2.563943,-7.161426 -0.410269,-0.929031 -1.558231,-2.034515 -2.617855,-2.520989 -1.287536,-0.591106 -2.990824,-0.583057 -4.310073,0.02036 -2.4120513,1.103276 -3.6867328,3.854957 -2.9350564,6.335966 0.5442918,1.796506 2.0593184,3.22359 3.9211284,3.693522 0.903935,0.228158 2.444566,0.06057 3.377913,-0.367441 z m 48.228068,2.646036 c -5.560294,-1.898123 -7.201779,-8.845262 -3.070022,-12.993031 1.575419,-1.581525 3.358609,-2.320207 5.601007,-2.320207 2.977591,0 5.620282,1.677028 6.971032,4.423757 2.165413,4.403331 -0.280615,9.770955 -5.029859,11.037641 -1.260305,0.33614 -3.246191,0.270348 -4.472158,-0.14816 z m 4.660637,-2.666829 c 3.401117,-1.556675 4.161676,-5.808034 1.531351,-8.559934 -1.432953,-1.499186 -3.973851,-1.975485 -5.877138,-1.101688 -2.219571,1.019004 -3.485377,3.406217 -3.057978,5.767115 0.216978,1.198565 0.620011,1.977392 1.457259,2.816039 1.610509,1.613195 3.879224,2.024654 5.946506,1.078468 z M 37.75059,18.191063 c -0.426142,-0.08023 -1.36753,-0.430865 -2.091972,-0.779199 -1.044061,-0.502014 -1.558144,-0.878514 -2.479375,-1.815823 -1.788112,-1.819322 -2.634336,-3.861789 -2.634336,-6.3583075 0,-1.6765748 0.220503,-2.6493785 0.945214,-4.1700754 1.081812,-2.2700159 3.214191,-4.0330209 5.795587,-4.7916621 1.244367,-0.36570513 3.55942,-0.36570513 4.803789,0 2.581394,0.7586412 4.713774,2.5216462 5.795586,4.7916621 0.727673,1.5269095 0.945213,2.4932332 0.945213,4.1986738 0,2.5055831 -0.827166,4.4939231 -2.633209,6.3297091 -2.23464,2.271439 -5.247867,3.197195 -8.446497,2.595022 z m 3.796543,-2.648039 c 1.045074,-0.313946 2.018497,-0.907463 2.826499,-1.723375 2.526971,-2.551707 2.582898,-6.5595439 0.12782,-9.1597593 -3.812778,-4.03817977 -10.444999,-1.9624956 -11.357689,3.5546132 -0.769671,4.6525591 3.862831,8.6925301 8.40337,7.3285211 z"
       id="path302" /></g></svg>
