<?xml version="1.0" encoding="UTF-8" standalone="no"?>
<!-- Created with Inkscape (http://www.inkscape.org/) -->

<svg
   version="1.1"
   id="svg4854"
   width="50"
   height="50"
   viewBox="0 0 50 50"
   sodipodi:docname="collaboration.svg"
   inkscape:version="1.2.2 (732a01da63, 2022-12-09)"
   xmlns:inkscape="http://www.inkscape.org/namespaces/inkscape"
   xmlns:sodipodi="http://sodipodi.sourceforge.net/DTD/sodipodi-0.dtd"
   xmlns="http://www.w3.org/2000/svg"
   xmlns:svg="http://www.w3.org/2000/svg">
  <defs
     id="defs4858" />
  <sodipodi:namedview
     id="namedview4856"
     pagecolor="#ffffff"
     bordercolor="#000000"
     borderopacity="0.25"
     inkscape:showpageshadow="2"
     inkscape:pageopacity="0.0"
     inkscape:pagecheckerboard="0"
     inkscape:deskcolor="#d1d1d1"
     showgrid="false"
     inkscape:zoom="12.75"
     inkscape:cx="17.960784"
     inkscape:cy="33.294118"
     inkscape:window-width="1920"
     inkscape:window-height="996"
     inkscape:window-x="-8"
     inkscape:window-y="-8"
     inkscape:window-maximized="1"
     inkscape:current-layer="g4860" />
  <g
     inkscape:groupmode="layer"
     inkscape:label="Image"
     id="g4860">
    <path
       style="fill:#e94d35;stroke:none;stroke-width:0.0976562;fill-opacity:1"
       d="m 19.335937,13.396988 h -0.09766 C 18.608203,12.638883 17.678613,12.07023 17.124219,11.248551 16.857031,10.852554 16.964258,10.311929 16.691504,9.8813629 15.905176,8.6400639 14.513281,7.5977787 13.476563,6.5610502 13.005566,6.0900443 12.48877,5.4220072 11.816406,5.2422416 10.572852,4.9097514 9.5450687,6.4886381 8.7890627,7.2446439 l -6.738281,6.7382821 c -0.679463,0.679492 -2.12053295,1.64746 -2.03540995,2.734374 0.08772,1.120118 1.68524295,2.188868 2.42603495,2.929688 0.721816,0.721777 1.840253,2.384473 2.929687,2.43916 1.245752,0.0625 2.231768,-1.448242 3.027344,-2.243848 l 4.9804683,-4.980468 c 0.837207,-0.837207 1.877149,-1.655078 2.539063,-2.636719 h 0.09766 c 0.453711,0.672852 1.140625,1.301758 1.757812,1.829687 0.244825,0.209376 0.722266,0.427637 0.670899,0.808887 -0.204199,1.515625 -2.294629,2.768262 -3.163379,3.904395 -0.541797,0.708496 -0.610937,1.699707 0.15459,2.288574 1.554492,1.195703 3.827246,1.156641 5.365234,0.01084 0.630762,-0.469824 1.722949,-1.834082 2.539063,-1.803906 1.374707,0.05088 2.853711,0.663964 4.199218,0.949414 0.553809,0.117578 1.466993,0.166308 1.933692,0.491504 0.465234,0.324121 0.668945,1.232812 1.095508,1.676855 1.656933,1.724902 3.384961,3.386816 5.076269,5.078125 l 3.710938,3.710937 c 0.40459,0.40459 1.144824,0.920118 0.78623,1.5625 -0.167969,0.300879 -0.447949,0.540235 -0.688574,0.78125 -0.304883,0.305372 -0.704297,0.848145 -1.171875,0.889258 -0.714453,0.06289 -1.599609,-1.219336 -2.050781,-1.670508 -0.379102,-0.379101 -0.931153,-1.134765 -1.556153,-0.792089 -1.290039,0.707226 1.168653,2.183691 1.396582,2.842871 0.214063,0.619238 -0.638281,1.189355 -1.012304,1.5625 -0.259961,0.259375 -0.56836,0.673437 -0.976563,0.660058 -0.543066,-0.01777 -1.018652,-0.702148 -1.367187,-1.050683 l -3.320313,-3.320313 c -0.404687,-0.404687 -1.271191,-1.483105 -1.891601,-0.747754 -0.515918,0.611426 0.332031,1.33584 0.719726,1.724317 l 2.734375,2.734375 c 0.306934,0.306933 0.903321,0.719433 0.985157,1.171875 0.11455,0.63291 -1.628614,2.326465 -2.254688,2.042676 C 28.956152,39.229215 28.296875,38.275894 27.734375,37.713394 26.94375,36.922769 26.011816,35.569449 25,35.083414 c -0.359668,-0.172754 -0.700098,0.171191 -1.016797,0.0127 -0.430371,-0.215332 -0.62539,-0.600683 -1.131641,-0.703027 0.116309,-1.731934 -0.853808,-3.381348 -2.539062,-4.110157 -0.443848,-0.191992 -1.27666,0.02549 -1.60498,-0.23916 -1.47168,-1.186035 -2.264454,-3.37705 -4.547364,-2.291308 -0.915527,-1.89668 -3.097851,-2.5125 -4.4921873,-3.90625 -0.372393,-0.372266 -1.297617,-1.303321 -1.768662,-0.480176 -0.605283,1.057715 1.30208,1.500293 1.30208,2.335644 0,0.611426 -1.285283,1.408008 -1.541699,2.050782 -0.786406,1.971289 1.197793,4.272656 3.1801563,4.296875 0.03945,1.264551 0.887402,2.343847 1.953125,2.984863 0.349511,0.210156 0.94414,0.211816 1.224804,0.479688 0.472266,0.450976 0.505762,1.367968 1.023145,1.906542 0.414062,0.431153 0.824609,0.877051 1.365332,1.147461 0.302832,0.151368 0.78418,0.152832 1.029492,0.378907 0.267676,0.246679 0.29375,0.789257 0.463867,1.110351 0.405371,0.765235 1.14375,1.497754 1.92461,1.875782 0.591211,0.28623 1.23164,0.321777 1.855468,0.134277 0.31084,-0.09336 0.749708,-0.47793 1.074219,-0.360254 0.833008,0.302051 1.31377,1.431055 2.148438,1.831934 1.627441,0.781738 3.876855,-1.058985 4.296875,-2.602833 1.490136,0.531739 3.702539,-1.048339 4.003906,-2.539062 1.721387,0.115625 3.660156,-0.784473 4.199219,-2.636719 1.74541,0.329199 4.223633,-1.313965 4.295019,-3.222656 0.04795,-1.280273 -0.927441,-2.026465 -1.767285,-2.856934 -0.317969,-0.314355 -1.107129,-0.840039 -0.97793,-1.342285 0.469239,-1.823242 2.161817,-3.418652 3.430664,-4.6875 0.531348,-0.531347 1.04502,-1.175488 1.647071,-1.625781 0.337304,-0.252441 0.815234,-0.141309 1.184961,-0.387012 0.727832,-0.483886 1.336621,-1.276953 1.953125,-1.893457 0.8,-0.8 2.948144,-2.249609 2.815332,-3.515625 -0.0666,-0.634179 -0.636133,-1.140332 -1.05752,-1.5625 L 46.09375,11.834488 C 45.225977,10.966715 44.259961,9.5889799 43.164062,9.0237069 42.023437,8.4353568 41.99209,9.8645659 42.578613,10.467301 c 1.379883,1.418261 2.799512,2.799999 4.198731,4.199218 0.379687,0.379688 1.447461,1.113281 1.526758,1.660156 0.04834,0.332813 -0.443653,0.67461 -0.647852,0.878907 l -2.246094,2.246093 c -0.220508,0.220508 -0.618847,0.797461 -0.976562,0.745508 -0.674414,-0.09785 -1.673145,-1.539746 -2.148438,-2.015039 L 36.71875,12.615738 C 36.324707,12.221695 34.518262,10.858511 34.750293,10.273843 35.142578,9.2850739 36.748926,8.1910014 37.5,7.4399565 37.741602,7.1983256 38.11748,6.6488529 38.476562,6.5967631 39.154395,6.4984431 40.274609,8.9188919 41.008887,7.5312846 41.257617,7.0611869 40.828516,6.5852885 40.525488,6.2680814 39.91416,5.6281107 39.082129,4.6242924 38.085937,5.006685 c -0.622265,0.2388769 -1.102734,0.8992382 -1.5625,1.3590527 -1.043749,1.0437598 -2.443164,2.0906055 -3.260644,3.3203132 -0.261719,0.3937491 -0.12002,0.7728511 -0.269434,1.1718751 -0.255078,0.680761 -1.525097,1.821582 -2.23164,2.002832 C 29.976953,13.062125 28.92793,12.771598 28.125,12.719254 26.369238,12.604801 24.609668,12.48439 22.851562,12.41857 21.53457,12.36935 20.200684,12.130289 19.335937,13.396988 m -7.812499,-6.7382816 2.832031,2.8320315 0.981054,1.1718751 -0.590429,0.78125 -1.855469,1.855469 -7.3242193,7.324218 h -0.09766 l -2.832031,-2.832031 -0.981084,-1.171875 0.590459,-0.78125 1.757812,-1.757812 4.882813,-4.8828131 2.6367193,-2.5390625 M 37.792965,27.459488 h -0.195313 l -4.693359,-4.783301 -1.654297,-1.857324 c 0.543457,-0.1375 2.674219,-0.31123 2.068848,-1.36084 -0.408789,-0.708887 -1.963282,-0.09922 -2.654786,-0.104004 -1.893847,-0.01318 -3.917871,-0.805176 -5.761718,-1.212109 -0.623828,-0.137695 -1.305567,-0.412012 -1.953125,-0.336817 -1.316895,0.15293 -2.281934,1.801368 -3.417969,2.393946 -1.162793,0.606445 -2.112598,0.191308 -3.222656,-0.259082 0.611719,-1.44961 2.332715,-2.314942 3.096972,-3.710938 0.401954,-0.734179 0.731739,-2.059179 1.590528,-2.379883 0.725097,-0.2708 1.696289,0.0064 2.441406,0.03428 2.410645,0.09023 4.940918,0.592383 7.349512,0.402832 0.962597,-0.07568 1.577051,-0.733789 2.2208,-1.377539 0.247559,-0.247559 0.673145,-0.86211 1.074219,-0.811133 0.401465,0.05117 0.806543,0.641113 1.074219,0.908789 l 2.734375,2.734375 3.710937,3.710937 c 0.317676,0.317676 1.274024,0.982422 1.274024,1.464844 0,0.568262 -1.281934,1.472754 -1.664649,1.855469 -1.408886,1.408887 -2.591601,2.855859 -3.417968,4.6875 M 5.3715427,15.704996 c -0.997285,0.358887 -0.548252,1.949414 0.486026,1.639844 1.034814,-0.309766 0.528086,-2.004688 -0.486026,-1.639844 m 5.3706453,10.91084 c 0.568847,-0.119629 1.017578,0.493457 1.367187,0.843652 0.303906,0.304395 0.704102,0.621094 0.76543,1.074219 0.09502,0.701758 -1.106641,1.854297 -1.741992,2.017285 -0.913477,0.234375 -2.1350103,-0.825098 -2.2293653,-1.724317 -0.08009,-0.763183 1.1218453,-2.060058 1.8387403,-2.210839 m 20.416503,1.686816 c -1.215625,0.472168 0.683985,2.648535 1.554297,2.33291 1.305664,-0.473437 -0.700293,-2.664648 -1.554297,-2.33291 m -15.82666,0.579199 c 0.484278,0 0.862696,0.514649 1.171875,0.823731 0.337989,0.33789 0.903418,0.733398 0.868555,1.269531 -0.02715,0.415527 -0.400684,0.703418 -0.673242,0.976562 -0.620313,0.62168 -1.575489,2.049024 -2.539063,2.038575 -0.954199,-0.01035 -2.15,-1.376367 -1.793945,-2.331543 0.250391,-0.671875 1.101758,-1.260938 1.598633,-1.757813 0.350879,-0.350879 0.81582,-1.019043 1.367187,-1.019043 m 3.90625,2.713086 c 0.762891,-0.180664 2.362696,1.342578 2.223047,2.114551 -0.07266,0.401367 -0.48623,0.704492 -0.758203,0.976562 -0.724219,0.724512 -1.89502,2.453418 -2.929688,2.700489 -0.952832,0.227539 -2.350878,-1.287305 -2.114941,-2.212207 0.25752,-1.010059 1.879199,-2.109473 2.603223,-2.832032 0.279687,-0.279101 0.574121,-0.65205 0.976562,-0.747363 M 21.875,35.696109 c 0.78418,-0.194238 2.335352,1.339258 2.230273,2.114941 -0.115039,0.849317 -2.085839,2.704395 -2.913867,2.89668 -0.964746,0.224024 -2.263672,-1.070019 -2.133496,-2.017773 0.11836,-0.861719 1.980567,-2.786719 2.81709,-2.993848 m 3.808594,2.017285 c 0.594043,0.594043 2.059765,1.587989 2.206347,2.441406 0.13086,0.762501 -1.373828,2.191016 -2.108691,2.138086 -0.522461,-0.03769 -0.927832,-0.624316 -1.269531,-0.966211 -0.212598,-0.212695 -0.688086,-0.544433 -0.688086,-0.878906 0,-0.532715 1.030273,-1.16582 1.340039,-1.5625 0.279687,-0.358203 0.301172,-0.796875 0.519922,-1.171875 z"
       id="path6070" />
  </g>
</svg>
