<?xml version="1.0" encoding="UTF-8" standalone="no"?>
<!-- Created with Inkscape (http://www.inkscape.org/) -->

<svg
   version="1.1"
   id="svg7529"
   width="50"
   height="50"
   viewBox="0 0 50 50"
   sodipodi:docname="consultation.svg"
   inkscape:version="1.2.2 (732a01da63, 2022-12-09)"
   xmlns:inkscape="http://www.inkscape.org/namespaces/inkscape"
   xmlns:sodipodi="http://sodipodi.sourceforge.net/DTD/sodipodi-0.dtd"
   xmlns="http://www.w3.org/2000/svg"
   xmlns:svg="http://www.w3.org/2000/svg">
  <defs
     id="defs7533" />
  <sodipodi:namedview
     id="namedview7531"
     pagecolor="#ffffff"
     bordercolor="#000000"
     borderopacity="0.25"
     inkscape:showpageshadow="2"
     inkscape:pageopacity="0.0"
     inkscape:pagecheckerboard="0"
     inkscape:deskcolor="#d1d1d1"
     showgrid="false"
     inkscape:zoom="9.0156114"
     inkscape:cx="55.90303"
     inkscape:cy="29.781674"
     inkscape:window-width="1920"
     inkscape:window-height="996"
     inkscape:window-x="-8"
     inkscape:window-y="-8"
     inkscape:window-maximized="1"
     inkscape:current-layer="g7535" />
  <g
     inkscape:groupmode="layer"
     inkscape:label="Image"
     id="g7535">
    <path
       style="fill:#e94d35;stroke:none;stroke-width:0.0976562;fill-opacity:1"
       d="m 7.8703689,3.4425272 c -0.98665,0.129541 -1.911514,0.1892675 -2.832031,0.6208203 -5.22700102,2.4504785 -4.29687502,8.1142975 -4.29687502,12.9119535 0,2.449316 -0.418117,5.276758 0.77047802,7.519531 0.708721,1.337305 1.798467,2.427051 3.135772,3.135742 0.530898,0.281348 1.927578,0.418067 2.243379,0.898829 0.264072,0.40205 0.100371,1.262988 0.100371,1.727148 v 4.492187 c 0,0.83086 -0.06467,2.132618 1.171875,1.966993 0.900664,-0.120606 1.738281,-1.361524 2.3437501,-1.966993 l 4.394531,-4.394531 c 0.570117,-0.570117 1.282031,-1.610742 2.050781,-1.894238 1.202246,-0.443262 3.209473,-0.05889 4.492188,-0.05889 h 11.035156 c 2.568457,0 4.989941,0.155176 7.128906,-1.530176 3.843654,-3.028515 2.734375,-8.710839 2.734375,-13.020605 0,-1.921973 0.210547,-3.925098 -0.458496,-5.7617191 C 41.30699,6.5031717 40.120662,5.1470389 38.632088,4.3563162 35.764607,2.8331326 32.010994,3.4010818 28.866463,3.4010818 H 14.999275 c -2.324511,0 -4.824902,-0.2610742 -7.1289061,0.041445 M 9.0422439,33.186238 V 28.98702 c 0,-0.596778 0.139365,-1.405078 -0.142266,-1.95166 -0.443515,-0.860547 -1.594033,-0.674805 -2.396797,-0.895801 -1.054521,-0.290332 -2.017724,-0.977051 -2.682685,-1.840039 -1.096953,-1.423535 -1.028252,-3.089356 -1.028252,-4.785157 v -7.031249 c 0,-1.434278 -0.118936,-2.885059 0.575234,-4.1992194 1.446885,-2.7391213 4.049825,-2.7343753 6.7489851,-2.7343753 h 5.957031 16.113281 c 2.392188,0 5.046289,-0.3691503 6.790528,1.664004 2.118554,2.4692977 1.314941,6.6371687 1.314941,9.6641217 0,2.483398 0.538477,5.57666 -1.20127,7.617187 -1.877246,2.201758 -4.59121,1.855469 -7.197168,1.855469 H 21.346931 c -1.600585,0 -3.511035,-0.287695 -5.078125,0.03359 -0.871289,0.178711 -1.644433,1.317871 -2.246093,1.919531 -1.588574,1.588574 -3.144824,3.589746 -4.9804691,4.882812 M 9.3352129,11.84493 c -5.225791,0.940527 -3.833682,9.114648 1.3671871,8.195312 0.70625,-0.124804 1.372168,-0.383105 1.952735,-0.811718 3.454687,-2.550684 0.783789,-8.122266 -3.3199221,-7.383594 m 11.4257811,0 c -5.380859,0.970117 -3.65459,9.157324 1.660156,8.148437 5.23086,-0.992871 3.54668,-9.087304 -1.660156,-8.148437 m 11.523437,-0.0025 c -5.223144,0.822461 -3.92871,9.033301 1.269532,8.215039 0.617871,-0.09727 1.23457,-0.303223 1.757812,-0.650977 3.703516,-2.461132 1.272754,-8.241211 -3.027344,-7.564062 M 9.7258379,13.882469 c 2.6987301,-0.472168 3.3504881,3.64873 0.6835941,4.121094 -2.6325011,0.466113 -3.3428231,-3.65586 -0.6835941,-4.121094 m 11.4257811,0 c 2.700195,-0.473535 3.39834,3.641309 0.683594,4.121094 -2.584961,0.456738 -3.262305,-3.668946 -0.683594,-4.121094 m 11.425781,0 c 2.75625,-0.483301 3.461914,3.653516 0.683594,4.121387 -2.561816,0.431347 -3.248242,-3.67168 -0.683594,-4.121387 M 40.292244,39.436238 35.7024,34.846395 c -0.662597,-0.662598 -1.396191,-1.703809 -2.246094,-2.117383 -0.770703,-0.375098 -2.087011,-0.128711 -2.929687,-0.128711 h -6.835938 c -1.627539,0 -3.255273,-0.0084 -4.882812,9.8e-5 -0.656738,0.0034 -1.354688,0.191015 -1.389746,0.976464 -0.02256,0.506446 0.299023,0.959473 0.803906,1.051954 1.313965,0.240625 2.862598,0.02226 4.199121,0.02226 h 7.128906 c 0.809864,0 2.197461,-0.265722 2.929688,0.100391 0.666211,0.333105 1.235742,1.135351 1.757812,1.657422 l 3.613282,3.613281 c 0.883105,0.883105 1.777343,2.088379 2.832031,2.760937 0.471484,0.300586 1.154199,0.251075 1.490039,-0.232519 0.337207,-0.485547 0.170117,-1.379395 0.170117,-1.942481 v -4.003906 c 0,-0.50332 -0.14414,-1.275586 0.05889,-1.743457 0.201758,-0.464648 1.351949,-0.57666 1.796579,-0.756933 1.11885,-0.453614 2.11895,-1.239551 2.86436,-2.18711 2.48486,-3.158496 1.53017,-8.243359 1.53017,-12.011719 0,-0.998535 0.51328,-3.7333 -0.8789,-3.920117 -1.6168,-0.216889 -1.17188,2.383697 -1.17188,3.334185 v 6.347656 c 0,1.662403 0.0627,3.272559 -0.96943,4.6875 -0.69805,0.956934 -1.68868,1.718555 -2.839164,2.035352 -0.726269,0.199902 -1.920117,0.02285 -2.312695,0.798535 -0.273047,0.539355 -0.128711,1.363574 -0.128711,1.951269 z"
       id="path8745" />
  </g>
</svg>
