<?xml version="1.0" encoding="UTF-8" standalone="no"?>
<!-- Created with Inkscape (http://www.inkscape.org/) -->

<svg
   width="300"
   height="300"
   viewBox="0 0 79.374998 79.375"
   version="1.1"
   id="svg5"
   xml:space="preserve"
   inkscape:version="1.2.2 (732a01da63, 2022-12-09)"
   sodipodi:docname="accompaniment.svg"
   xmlns:inkscape="http://www.inkscape.org/namespaces/inkscape"
   xmlns:sodipodi="http://sodipodi.sourceforge.net/DTD/sodipodi-0.dtd"
   xmlns="http://www.w3.org/2000/svg"
   xmlns:svg="http://www.w3.org/2000/svg"><sodipodi:namedview
     id="namedview7"
     pagecolor="#ffffff"
     bordercolor="#000000"
     borderopacity="0.25"
     inkscape:showpageshadow="2"
     inkscape:pageopacity="0.0"
     inkscape:pagecheckerboard="0"
     inkscape:deskcolor="#d1d1d1"
     inkscape:document-units="mm"
     showgrid="false"
     inkscape:zoom="2.2097881"
     inkscape:cx="55.208915"
     inkscape:cy="169.247"
     inkscape:window-width="1920"
     inkscape:window-height="1057"
     inkscape:window-x="-8"
     inkscape:window-y="-8"
     inkscape:window-maximized="1"
     inkscape:current-layer="layer1" /><defs
     id="defs2" /><g
     inkscape:label="Слой 1"
     inkscape:groupmode="layer"
     id="layer1"><path
       style="fill:#424242;fill-opacity:1;stroke-width:0.162308"
       d="m 12.943859,79.06044 -0.377775,-0.314607 -0.04458,-7.654336 -0.04458,-7.654336 -3.7159255,-0.065 L 5.0450661,63.307144 4.2299014,62.970816 3.4147388,62.634493 2.6616529,62.101455 1.9085668,61.568414 1.3588259,60.800044 0.80908503,60.031677 0.44673737,59.126242 0.08439083,58.220808 0.03777649,47.756844 -0.00883774,37.292879 0.32942653,36.850476 0.66769174,36.408074 H 1.2845497 1.9014075 l 0.3316571,0.433761 0.3316582,0.433762 0.00154,10.22567 0.00154,10.225667 0.3773125,0.823123 0.3773136,0.823121 0.3812266,0.360187 0.3812265,0.360187 0.7200978,0.335853 0.7200978,0.33585 1.9768893,0.0036 1.976889,0.0036 L 8.2865246,59.468572 7.0941786,58.164643 6.424608,56.840625 5.7550365,55.516609 5.412947,54.234724 5.0708562,52.95284 5.0037531,44.831828 4.9366499,36.710816 5.1224413,35.613238 5.3082315,34.51566 5.7176744,33.741742 6.1271173,32.967823 6.4975048,32.609852 6.8678931,32.251883 6.0003234,31.436166 5.1327536,30.620451 4.608824,29.525587 4.0848954,28.430725 v -1.814329 -1.814331 l 0.4702355,-0.987747 0.4702345,-0.987745 0.8099387,-0.833234 0.8099387,-0.833236 0.9601303,-0.483762 0.9601293,-0.483759 h 1.7636046 1.763603 l 1.053579,0.533594 1.053579,0.533594 0.754493,0.829814 0.754494,0.829816 0.39452,0.886536 0.394523,0.886539 0.171461,1.001385 0.171457,1.001386 -0.167401,0.977693 -0.167402,0.977692 -0.429412,0.902196 -0.429409,0.902195 -0.808778,0.836414 -0.80878,0.836416 h -0.163103 -0.163104 l 0.482636,0.535029 0.482638,0.53503 0.254455,0.424323 0.254456,0.424321 0.254428,0.881396 0.254429,0.881396 v 0.593172 0.593175 l 1.656173,1.105503 1.656173,1.105505 6.384917,0.0036 6.384918,0.0036 0.653018,0.305114 0.653019,0.305117 0.579994,0.614379 0.579996,0.61438 0.266821,0.82643 0.266821,0.826428 -0.101046,0.884453 -0.101045,0.884451 h 5.091961 5.091957 l -0.0098,-1.193528 -0.0099,-1.193526 0.303622,-0.62894 0.303618,-0.62894 0.492938,-0.507113 0.492938,-0.507116 0.643636,-0.300793 0.643638,-0.300796 6.384917,-0.0036 6.384916,-0.0036 1.634965,-1.091348 1.634966,-1.091348 0.0956,-1.053095 0.09559,-1.053096 0.302574,-0.703691 0.302572,-0.703692 0.520218,-0.609539 0.520219,-0.609536 -0.877665,-0.888597 -0.877663,-0.888596 -0.423717,-0.890956 -0.423715,-0.890957 -0.183821,-1.016876 -0.183822,-1.01688 0.199001,-1.111083 0.199,-1.11108 0.490224,-0.946207 0.490223,-0.946209 0.784033,-0.754464 0.784033,-0.754465 0.90167,-0.424673 0.901681,-0.424675 0.893454,-0.101836 0.893464,-0.101834 0.960124,0.128659 0.960136,0.128663 0.880117,0.440909 0.880118,0.440908 0.847635,0.870885 0.847625,0.870883 0.384145,0.867283 0.384134,0.867282 0.159774,1.0305 0.159786,1.030497 -0.149329,0.944994 -0.149319,0.944995 -0.4795,1.002474 -0.479508,1.002473 -0.863129,0.839798 -0.863139,0.839802 0.387345,0.374356 0.387344,0.37436 0.513181,1.07202 0.513169,1.072023 0.04852,8.070433 0.04841,8.07043 -0.17689,1.377134 -0.176888,1.377129 -0.470167,1.325363 -0.470181,1.325362 -0.681562,1.081004 -0.681575,1.081006 -0.93276,0.96245 -0.93275,0.96245 2.146321,-0.05416 2.146323,-0.05416 0.78248,-0.498226 0.782473,-0.498225 0.484288,-0.805666 0.484299,-0.805668 0.07999,-10.503447 0.07999,-10.503449 0.351155,-0.361147 0.351166,-0.361147 h 0.514274 0.514285 l 0.374722,0.448178 0.37473,0.448179 v 10.02481 10.024806 l -0.177415,0.872383 -0.177414,0.87238 -0.485147,0.946934 -0.485145,0.946937 -0.683184,0.647851 -0.683184,0.647855 -0.774545,0.401385 -0.774533,0.401385 -0.847996,0.1851 -0.847998,0.185087 h -3.272568 -3.272568 v 7.550521 7.550523 l -0.331656,0.43376 -0.331659,0.433764 h -2.28072 -2.280806 L 61.32065,78.994022 60.972713,78.613009 v -7.610195 -7.610195 l -1.23762,0.04808 -1.237621,0.04807 -0.340178,0.658498 -0.34018,0.658498 -1.979736,6.96526 -1.979731,6.965257 -0.289221,0.319372 -0.289222,0.319371 H 39.711419 26.143704 l -0.325066,-0.370404 -0.325067,-0.370406 -1.963293,-6.914225 -1.963291,-6.914225 -0.342436,-0.658498 -0.342435,-0.658498 -1.237621,-0.04807 -1.23762,-0.04808 v 7.557449 7.557447 l -0.331659,0.433759 -0.331657,0.433764 h -2.210961 -2.210962 z m 3.06269,-8.904362 V 63.406477 H 15.526483 15.04642 v 6.749601 6.749601 h 0.480063 0.480066 z M 28.968307,73.26833 V 69.630982 L 28.063435,66.559886 27.158566,63.488789 26.551219,61.951858 25.943866,60.414927 25.225189,59.228688 24.506511,58.042449 23.54197,57.095971 22.577431,56.149494 21.720613,55.745947 20.863796,55.3424 20.013547,55.176516 19.163301,55.010633 H 17.773453 16.383606 L 15.64074,54.750232 14.897877,54.489833 14.252915,53.826321 13.607956,53.162809 13.367056,52.328284 13.126158,51.49376 V 48.107447 44.721138 L 11.506349,43.663218 9.8865384,42.605298 9.4375886,41.967716 8.9886392,41.330133 8.8140159,40.492471 8.6393916,39.654811 8.7441179,39.060344 8.8488427,38.46588 l 0.2823222,-0.578345 0.2823212,-0.578341 0.4561474,-0.474122 0.4561455,-0.474121 0.640088,-0.302072 0.640086,-0.302073 0.680092,-0.0036 0.680093,-0.0036 v -0.32241 -0.322319 l -0.600082,-0.648326 -0.600082,-0.648325 -0.682461,-0.18873 -0.682464,-0.18873 -0.561534,0.108373 -0.5615328,0.108375 -0.5162426,0.352674 -0.5162427,0.352673 -0.3650169,0.739481 -0.3650169,0.739482 0.046945,8.642781 0.046945,8.642782 0.3557168,1.081934 0.3557178,1.081931 0.6164894,0.975873 0.6164905,0.975871 0.7060514,0.72636 0.706052,0.726358 0.92448,0.618194 0.924479,0.618193 0.99578,0.364999 0.995782,0.365 3.200432,0.106499 3.200435,0.106501 0.601939,0.302575 0.601943,0.302575 0.42377,0.515364 0.423772,0.515365 0.3583,0.823121 0.358299,0.823122 1.803981,6.379197 1.803984,6.379195 h 0.692531 0.692531 z m 18.882559,-9.367979 v -13.00533 h -8.161107 -8.161106 l -0.0077,10.824057 -0.0077,10.824053 -0.08181,1.954555 -0.08181,1.954553 0.08456,0.226721 0.08456,0.226719 h 8.166129 8.166127 V 63.900351 Z m 5.739308,6.626132 1.813619,-6.379196 0.406802,-0.948533 0.406799,-0.948534 0.60606,-0.563287 0.606059,-0.563288 0.611409,-0.174661 0.611408,-0.174662 2.480336,-0.0033 2.480335,-0.0034 1.031678,-0.250163 1.031677,-0.250162 1.048606,-0.528173 1.048607,-0.528173 1.219991,-1.235882 1.219991,-1.235879 0.477973,-0.987746 0.477962,-0.987746 0.30231,-0.905435 0.302311,-0.905434 V 44.2159 35.478902 l -0.425783,-0.662018 -0.425774,-0.662021 -0.614367,-0.301883 -0.614357,-0.301882 -0.751082,0.01007 -0.751082,0.01007 -0.585579,0.372319 -0.585591,0.372319 -0.302951,0.511122 -0.302961,0.511123 -6.41e-4,0.20578 -6.4e-4,0.20578 h 0.645221 0.64523 l 0.594941,0.255279 0.59494,0.25528 0.534095,0.526686 0.534093,0.526687 0.292659,0.583841 0.29266,0.583845 0.110374,0.605235 0.110363,0.605236 -0.192269,0.824531 -0.192268,0.82453 -0.445468,0.632632 -0.445456,0.632635 -1.61957,1.098673 -1.619567,1.09867 v 3.348929 3.348926 l -0.220885,0.755052 -0.220883,0.755049 -0.349649,0.505162 -0.349649,0.505161 -0.729093,0.439567 -0.729092,0.439567 -2.180847,0.125625 -2.180845,0.125622 -0.917418,0.331055 -0.917417,0.331051 -0.682801,0.483492 -0.6828,0.483493 -0.729354,0.802458 -0.729356,0.80246 -0.662265,1.152084 -0.662263,1.152085 -0.476837,1.234682 -0.476839,1.234686 -0.920755,2.963237 -0.920754,2.963241 -0.06165,3.909829 -0.06165,3.90983 h 0.69314 0.693141 l 1.813618,-6.379196 z m 10.742925,-0.370405 v -6.749601 h -0.480064 -0.480066 v 6.639852 6.639851 l 0.106682,0.109748 0.106681,0.109751 h 0.373385 0.373382 z M 28.968307,55.916066 v -5.021045 h -3.582763 -3.582758 l -0.377778,-0.314519 -0.377776,-0.314522 -0.05493,-1.562878 -0.05494,-1.562878 -2.105362,-0.06119 -2.105363,-0.06119 -0.52007,-0.28806 -0.52007,-0.288058 v 2.609523 2.60952 l 0.360048,0.336579 0.360049,0.336581 1.840659,0.102079 1.840661,0.10208 0.95972,0.256295 0.959719,0.256297 0.800108,0.379896 0.800108,0.379895 0.996193,0.775621 0.996191,0.775622 0.941164,1.284944 0.941166,1.284948 0.703002,1.499995 0.703,1.499998 0.04,0.0027 0.04,0.0027 v -5.020967 z m 23.12418,1.798082 0.602437,-0.968853 0.642706,-0.784131 0.642704,-0.784134 0.868142,-0.674306 0.868143,-0.674307 0.881966,-0.41539 0.881963,-0.41539 0.825924,-0.231488 0.825923,-0.231487 1.92026,-0.100217 1.92026,-0.100215 0.360049,-0.336731 0.360048,-0.336733 v -2.59268 -2.592678 l -0.520069,0.275475 -0.520072,0.275476 -2.105254,0.05363 -2.105252,0.05362 -0.05504,1.566192 -0.05503,1.566192 -0.377777,0.314522 -0.377778,0.314519 h -3.582751 -3.582762 l 0.01044,5.062202 0.01044,5.0622 0.528989,-1.168212 0.528986,-1.168214 0.602438,-0.968848 z m 3.759463,-9.94699 V 47.10866 H 39.689759 23.527569 v 0.658498 0.658498 H 39.689759 55.85195 Z M 31.837083,44.040907 32.16874,43.607145 v -0.525286 -0.52529 l -0.412798,-0.399101 -0.412799,-0.399101 -6.613635,-0.04636 -6.613633,-0.04636 -2.604831,-1.723351 -2.604831,-1.723348 H 12.523812 12.14141 l -0.467755,0.48121 -0.467756,0.481207 v 0.475075 0.475071 l 0.200026,0.273762 0.200028,0.273763 2.864253,1.89782 2.864257,1.897819 h 7.08548 7.085481 z m 32.748971,-1.253637 2.547693,-1.6874 0.334516,-0.246937 0.334527,-0.246937 0.185414,-0.359582 0.185415,-0.359583 v -0.33089 -0.330892 l -0.379314,-0.453667 -0.379325,-0.453666 -0.540801,0.0038 -0.540812,0.0038 -2.498122,1.668563 -2.498128,1.668563 -6.677111,0.0481 -6.67711,0.04809 -0.386057,0.461897 -0.386061,0.461899 v 0.462492 0.462491 l 0.331659,0.433761 0.331658,0.433763 h 7.08213 7.082132 l 2.547697,-1.6874 z m -52.998666,-12.341253 0.658651,-0.200202 0.805531,-0.828701 0.805531,-0.828699 0.194605,-0.677599 0.194605,-0.677597 V 26.489151 25.745084 L 13.799413,24.865017 13.352514,23.984949 12.691639,23.466386 12.030767,22.947822 11.197782,22.742243 10.3648,22.536667 9.5164656,22.731977 8.6681324,22.927285 7.9537601,23.488438 7.239388,24.04959 l -0.3755165,0.787793 -0.3755164,0.787791 0.00434,1.070059 0.00434,1.070058 0.3394739,0.658498 0.3394752,0.658498 0.4547152,0.443012 0.4547143,0.443013 0.7200976,0.335339 0.7200979,0.335338 0.7015308,0.0036 0.701534,0.0036 0.658651,-0.200203 z m 59.077907,-0.191731 0.811445,-0.388716 0.514234,-0.638578 0.514223,-0.638577 0.250391,-0.880188 0.25038,-0.880187 -0.09981,-0.684509 -0.09981,-0.68451 -0.475226,-0.856016 -0.475216,-0.856017 -0.72602,-0.437712 -0.72601,-0.437711 -0.659475,-0.152437 -0.659475,-0.152435 -0.844042,0.180263 -0.844032,0.180261 -0.641091,0.477758 -0.641088,0.47776 -0.421537,0.739989 -0.421537,0.739988 -0.09148,0.911824 -0.09148,0.911825 0.281942,0.75949 0.281943,0.759489 0.499244,0.584965 0.499243,0.584964 0.801279,0.383868 0.801267,0.383865 h 0.800111 0.800114 z M 18.145091,25.350318 17.803299,25.18006 17.625021,24.77753 17.446744,24.374999 v -2.030881 -2.030882 l -1.023207,-0.06703 -1.023207,-0.06703 -0.76996,-0.489723 -0.769961,-0.489724 -0.447136,-0.880532 -0.447135,-0.880536 0.0015,-7.348144 0.0015,-7.3481438 0.480625,-0.8621579 0.480623,-0.8621588 0.838053,-0.49444784 0.838053,-0.49444783 10.001357,0.0021272 10.001356,0.0021272 0.640085,0.2999017 0.640087,0.2999028 0.589432,0.67257707 0.589434,0.672576 0.169778,0.6289939 0.169778,0.6289928 9.6e-4,6.8951265 9.62e-4,6.895126 -0.185716,0.637688 -0.185715,0.637688 -0.565457,0.679612 -0.565459,0.679612 -0.649016,0.303271 -0.649017,0.303274 -5.711903,0.0036 -5.711908,0.0036 -2.52921,2.63568 -2.529213,2.63568 -0.320043,-0.01283 -0.320044,-0.01282 -0.341794,-0.17026 z m 10.900068,-7.544803 6.192642,-0.0823 0.305719,-0.388642 0.305717,-0.388646 V 10.150479 3.3550429 L 35.543399,2.9663999 35.237557,2.577757 25.773491,2.5327646 16.309429,2.4877723 15.837946,2.9728171 15.366462,3.4578607 v 6.6926153 6.692617 l 0.467756,0.481209 0.467756,0.481209 h 1.434775 1.434778 l 0.37379,0.311383 0.37379,0.311384 0.06084,1.239569 0.06085,1.239573 1.405858,-1.509798 1.40586,-1.509799 z m -9.619893,-3.485031 -0.341792,-0.170261 -0.178278,-0.402529 -0.178279,-0.402531 v -0.328984 -0.328987 l 0.392783,-0.404079 0.392778,-0.404078 6.128105,0.0052 6.128103,0.0052 0.273747,0.213962 0.273746,0.213959 0.167967,0.454494 0.167967,0.454494 -0.201679,0.432707 -0.201683,0.432707 -0.400053,0.208171 -0.400055,0.208171 -5.840792,-0.0087 -5.840792,-0.0087 -0.341793,-0.17026 z M 19.1197,8.0178448 18.726917,7.6137673 V 7.2847825 6.9557966 L 18.904584,6.5546423 19.082253,6.1534892 19.47219,5.9707109 19.86213,5.7879328 h 5.904347 5.90435 l 0.435648,0.3855072 0.435648,0.3855072 v 0.5459815 0.5459815 l -0.435648,0.3855062 -0.435648,0.3855072 h -6.079173 -6.079176 z m 38.707295,16.6203662 -3.065634,-0.869167 -1.014918,0.2443 -1.014915,0.244301 -1.840251,-0.07568 -1.84025,-0.07568 -1.280173,-0.429872 -1.280173,-0.429871 -1.040141,-0.618992 -1.04014,-0.618984 -1.364469,-1.401877 -1.364468,-1.401878 -0.661268,-1.316997 -0.661269,-1.316994 -0.260092,-0.92594 -0.260093,-0.925943 -0.142048,-1.296489 -0.142048,-1.296492 0.148498,-1.350995 0.148501,-1.3509973 0.414769,-1.2006813 0.41477,-1.2006817 0.407471,-0.74081 0.407474,-0.74081 0.846708,-1.0892594 0.84671,-1.0892605 1.01048,-0.7876649 1.010481,-0.7876659 1.120151,-0.5366465 1.120152,-0.53664736 1.040142,-0.28937311 1.040141,-0.2893731 h 1.84025 1.840249 l 1.04014,0.284311 1.040143,0.28431111 1.280173,0.64693456 1.280173,0.6469355 1.002832,0.8463239 1.002837,0.8463228 0.801787,1.0900006 0.801786,1.0900006 0.480355,1.0213438 0.480357,1.0213429 0.322114,1.2833986 0.32211,1.2833977 v 1.728557 1.728555 l -0.326864,1.302512 -0.326865,1.302512 -0.626804,1.195478 -0.626803,1.195479 0.624158,2.358429 0.62416,2.358431 0.0027,0.605394 0.0026,0.605392 -0.421633,0.341198 -0.421635,0.341198 -0.338468,-0.01774 -0.338469,-0.01774 L 57.82684,24.6382 Z m 1.545433,-2.458271 v -0.07043 l -0.399652,-1.534657 -0.399651,-1.534654 -4.79e-4,-0.401666 -4.81e-4,-0.401664 0.626505,-1.079956 0.626505,-1.079954 0.25254,-0.784464 0.252539,-0.784462 0.177062,-1.174004 0.177058,-1.174005 L 60.511486,10.964157 60.338595,9.7682928 60.010195,8.8653219 59.681796,7.9623515 59.075084,6.9986109 58.46837,6.0348694 57.537813,5.1617274 56.607256,4.2885844 55.793063,3.8641344 54.978871,3.4396843 54.095154,3.1267458 53.211438,2.8138072 l -1.132888,-0.09865 -1.132887,-0.09865 -1.107417,0.198112 -1.107414,0.1981119 -1.334647,0.6430904 -1.334643,0.6430895 -1.159704,1.1972325 -1.159707,1.1972316 -0.588295,1.2346834 -0.588294,1.2346835 -0.252336,1.234682 -0.252335,1.234684 0.100358,1.183794 0.100358,1.183794 0.248,0.874011 0.248,0.87401 0.53322,0.990447 0.533219,0.990446 0.649687,0.759313 0.649686,0.759314 1.08362,0.753973 1.083619,0.753974 1.267208,0.431759 1.267204,0.43176 1.421324,0.0047 1.42132,0.0047 1.071982,-0.274358 1.071982,-0.274358 2.000269,0.57187 2.000272,0.571873 0.280039,0.01371 0.280038,0.01371 v -0.0705 z M 45.872175,16.147322 45.45054,15.806125 v -0.545999 -0.545998 l 0.305906,-0.388645 0.305903,-0.388643 h 5.308994 5.308993 l 0.305904,0.388643 0.305905,0.388645 v 0.483117 0.483118 l -0.392782,0.404077 -0.392779,0.40408 H 51.400196 46.29381 Z m -0.0737,-6.130921 -0.347937,-0.3810145 V 9.1824561 8.7295273 L 45.61244,8.4183036 45.774343,8.107081 46.372542,7.9361716 46.97074,7.7652622 h 4.400597 4.400596 l 0.598198,0.1709094 0.5982,0.1709094 0.161902,0.3112226 0.161906,0.3112237 v 0.4759995 0.475999 L 56.921776,10.03947 56.551415,10.397416 H 51.34891 46.146408 Z"
       id="path3055" /></g></svg>
