<?xml version="1.0" encoding="UTF-8" standalone="no"?>
<!-- Created with Inkscape (http://www.inkscape.org/) -->

<svg
   version="1.1"
   id="svg5608"
   width="300"
   height="300"
   viewBox="0 0 300 300"
   sodipodi:docname="content.svg"
   inkscape:version="1.2.2 (732a01da63, 2022-12-09)"
   xmlns:inkscape="http://www.inkscape.org/namespaces/inkscape"
   xmlns:sodipodi="http://sodipodi.sourceforge.net/DTD/sodipodi-0.dtd"
   xmlns="http://www.w3.org/2000/svg"
   xmlns:svg="http://www.w3.org/2000/svg">
  <defs
     id="defs5612" />
  <sodipodi:namedview
     id="namedview5610"
     pagecolor="#ffffff"
     bordercolor="#000000"
     borderopacity="0.25"
     inkscape:showpageshadow="2"
     inkscape:pageopacity="0.0"
     inkscape:pagecheckerboard="0"
     inkscape:deskcolor="#d1d1d1"
     showgrid="false"
     inkscape:zoom="2.2539029"
     inkscape:cx="134.87715"
     inkscape:cy="164.8252"
     inkscape:window-width="1920"
     inkscape:window-height="996"
     inkscape:window-x="-8"
     inkscape:window-y="-8"
     inkscape:window-maximized="1"
     inkscape:current-layer="g5614" />
  <g
     inkscape:groupmode="layer"
     inkscape:label="Image"
     id="g5614">
    <path
       style="fill:#424242;stroke-width:0.585938;fill-opacity:1"
       d="m 70.806201,297.66118 c -1.82011,-0.7345 -3.13886,-2.90277 -3.13886,-5.16085 v -1.96548 l 1.71274,-1.71273 1.71274,-1.71275 h 17.58165 17.581659 l 0.62769,-3.07617 c 1.49549,-7.32909 2.22915,-20.31849 1.42306,-25.19531 l -0.36318,-2.19727 -39.327639,-0.0159 c -21.6302,-0.009 -41.81545,-0.25645 -44.85612,-0.55049 l -5.52849,-0.53461 -4.18321,-2.06746 c -7.5749501,-3.74371 -12.9573801,-11.14228 -14.31938009,-19.6831 -0.39873,-2.50033 -0.60538,-32.48968 -0.60161,-87.30469 l 0.006,-83.496084 0.84185,-3.97289 C 1.8924109,49.967256 7.5863209,43.366126 16.629341,39.707636 l 3.28434,-1.32873 49.41755,-0.29297 49.417549,-0.29297 7.46458,-12.89062 C 135.846,8.2676758 139.62913,4.5291758 149.04839,2.3367058 c 19.76528,-4.60067 37.84354,16.1442602 30.24698,34.7086302 l -0.41336,1.01018 52.35177,0.1617 52.35178,0.16169 2.80708,1.30777 c 4.18072,1.94773 8.76564,6.58532 10.74321,10.86662 l 1.68408,3.64592 0.17449,88.476564 0.17448,88.47656 -0.66181,3.51563 c -1.7525,9.30947 -8.27135,16.89565 -17.55825,20.43307 l -3.22266,1.22752 -44.05953,0.18031 -44.05954,0.1803 -0.40825,2.72241 c -0.71987,4.80048 1.09725,25.01284 2.4447,27.19307 0.17156,0.2776 8.31493,0.50472 18.09636,0.50472 h 17.78443 l 1.51693,1.80278 c 0.99966,1.18802 1.51693,2.50211 1.51693,3.85366 v 2.0509 l -1.71274,1.71274 -1.71274,1.71274 -77.53531,-0.0371 c -42.64441,-0.0204 -78.100349,-0.26517 -78.790969,-0.54386 z M 179.57653,286.37695 c -0.003,-0.40283 -0.39303,-3.63281 -0.86746,-7.17773 -0.47444,-3.54492 -0.86775,-10.0708 -0.87405,-14.50195 l -0.0114,-8.05665 h -29.00391 -29.0039 l -0.0114,8.34961 c -0.006,4.59229 -0.39961,11.25 -0.87404,14.79493 -0.47443,3.54492 -0.86479,6.64306 -0.86747,6.88476 -0.003,0.2417 13.83791,0.43945 30.75685,0.43945 h 30.76172 l -0.005,-0.73242 z m 97.7921,-42.31128 c 3.43399,-1.21159 6.31204,-3.57978 8.15001,-6.70619 l 1.58229,-2.69151 0.19587,-9.81445 0.19588,-9.81446 H 149.16204 10.831401 l 0.0129,9.22852 0.0129,9.22851 1.06841,2.34375 c 1.6072,3.5257 3.87096,5.89388 7.23778,7.57163 l 3.03098,1.5104 H 148.56815 274.94194 Z M 287.3939,130.16477 V 56.423296 l -1.3323,-1.977 c -0.73277,-1.08735 -2.22196,-2.57654 -3.30931,-3.30931 l -1.97701,-1.3323 -54.25904,0.0237 -54.25906,0.0237 -27.53906,47.85034 c -31.41869,54.591354 -28.00324,49.664224 -38.67188,55.787994 l -8.203119,4.70856 62.274679,0.002 62.27468,0.002 1.9848,0.8293 c 3.53328,1.4763 4.44509,5.92025 1.83688,8.95248 l -1.41411,1.64455 h -75.6874 -75.687399 l -1.41411,-1.644 -1.41412,-1.64401 v -22.53397 -22.53357 l 20.50782,-35.533984 c 11.279289,-19.5437 20.507809,-35.62424 20.507809,-35.73454 0,-0.1103 -19.942549,-0.20055 -44.316789,-0.20055 h -44.31678 l -2.26969,0.68002 c -3.21476,0.96316 -6.87383,4.31887 -8.48715,7.78349 l -1.37939,2.96227 -0.006,71.337894 -0.006,71.33789 H 149.11205 287.3933 Z m -129.78796,2.60053 c -2.63956,-2.63956 -2.40008,-6.82672 0.5069,-8.86286 l 1.2215,-0.85556 h 32.43423 32.43423 l 1.71273,1.71274 1.71275,1.71273 v 2.30893 2.30892 l -1.54475,1.54475 -1.54475,1.54474 h -32.75923 -32.75923 z m -64.334569,14.85194 c 3.60859,-2.07327 6.37715,-3.94858 6.15234,-4.16735 -0.68842,-0.66998 -16.75722,-9.85614 -17.24074,-9.85614 -0.24923,0 -0.45313,4.6368 -0.45313,10.304 v 10.304 l 2.49023,-1.40747 c 1.36963,-0.7741 5.44272,-3.10377 9.0513,-5.17704 z M 133.57784,94.002036 c 13.11826,-22.74224 23.71738,-41.48353 23.5536,-41.64731 -0.54556,-0.54555 -24.53567,-14.26898 -24.92294,-14.25705 -0.42703,0.0132 -47.841939,82.049374 -47.841939,82.775054 0,0.53922 23.698739,14.40875 24.691669,14.45064 0.36753,0.0155 11.40136,-18.5791 24.51961,-41.321334 z m 32.43608,-56.18391 c 1.36729,-2.40316 2.77738,-5.76498 3.13352,-7.47071 l 0.64753,-3.10132 -0.94452,-3.23839 c -1.17815,-4.03944 -4.19026,-7.63571 -7.82733,-9.34533 l -2.76999,-1.30206 -4.18785,0.21148 -4.18785,0.21148 -2.87263,1.77555 -2.87262,1.77556 -3.14747,5.1287 c -1.7311,2.82078 -3.04946,5.22618 -2.92969,5.34533 0.44168,0.43936 24.80852,14.37908 25.13485,14.37908 0.18593,0 1.45675,-1.96622 2.82405,-4.36937 z"
       id="path6824" />
  </g>
</svg>
