<?xml version="1.0" encoding="UTF-8" standalone="no"?>
<!-- Created with Inkscape (http://www.inkscape.org/) -->

<svg
   version="1.1"
   id="svg59"
   width="300"
   height="300"
   viewBox="0 0 300 300"
   sodipodi:docname="copywriting.svg"
   inkscape:version="1.2.2 (732a01da63, 2022-12-09)"
   xmlns:inkscape="http://www.inkscape.org/namespaces/inkscape"
   xmlns:sodipodi="http://sodipodi.sourceforge.net/DTD/sodipodi-0.dtd"
   xmlns="http://www.w3.org/2000/svg"
   xmlns:svg="http://www.w3.org/2000/svg">
  <defs
     id="defs63" />
  <sodipodi:namedview
     id="namedview61"
     pagecolor="#ffffff"
     bordercolor="#000000"
     borderopacity="0.25"
     inkscape:showpageshadow="2"
     inkscape:pageopacity="1"
     inkscape:pagecheckerboard="0"
     inkscape:deskcolor="#d1d1d1"
     showgrid="false"
     inkscape:zoom="1.5488281"
     inkscape:cx="10.330391"
     inkscape:cy="220.48928"
     inkscape:window-width="1920"
     inkscape:window-height="996"
     inkscape:window-x="-8"
     inkscape:window-y="-8"
     inkscape:window-maximized="1"
     inkscape:current-layer="g65" />
  <g
     inkscape:groupmode="layer"
     inkscape:label="Image"
     id="g65">
    <path
       style="fill:#424242;fill-opacity:1;stroke-width:0.585938"
       d="m 4.121675,299.12533 -1.92623,-0.83691 -0.85697,-2.05102 -0.85698,-2.05102 V 165.53545 36.884536 l 0.81912,-1.960432 c 0.45052,-1.078238 1.17562,-2.190375 1.61133,-2.471416 0.43572,-0.28104 7.12033,-0.642818 14.85471,-0.803951 l 14.0625,-0.292969 0.29297,-14.120454 0.29297,-14.1204534 0.75185,-0.904398 c 0.41351,-0.497419 1.4682,-1.2000691 2.34375,-1.56144405 l 1.5919,-0.6570469 82.176835,0.154554 82.17683,0.154555 22.41301,22.41303135 22.41301,22.413031 0.16738,108.251027 c 0.0921,59.53807 0.0177,109.08915 -0.16519,110.11352 -0.18291,1.02437 -0.82774,2.47456 -1.43295,3.22265 l -1.10038,1.36018 -14.26178,0.29296 -14.26177,0.29297 -0.31924,14.35547 c -0.17559,7.89551 -0.37334,14.42526 -0.43946,14.51057 -0.0661,0.0853 -0.97714,0.67758 -2.0245,1.31617 l -1.9043,1.16107 -102.2461,-0.0207 -102.246085,-0.0207 z m 199.547815,-20.65042 -0.16065,-9.81446 -84.2123,-0.29297 -84.212295,-0.29296 -1.33457,-1.33461 -1.33458,-1.3346 -0.29297,-111.1654 -0.29297,-111.165392 -9.81445,-0.160652 -9.81446,-0.160651 V 165.52129 288.28936 h 95.814945 95.81495 z m 31.187,-123.19336 V 53.328424 h -19.08803 -19.08805 l -1.71274,-1.71274 -1.71274,-1.71274 V 30.814903 11.726862 h -75 -74.999995 v 122.753908 122.7539 h 95.800775 95.80078 z M 72.23221,223.5699 c -2.29565,-2.29565 -2.14137,-5.76192 0.35977,-8.08327 l 1.73613,-1.61133 h 65.07489 65.07489 l 1.71274,1.71274 1.71274,1.71274 v 2.14092 2.14093 l -1.71274,1.71274 -1.71274,1.71274 H 139.07415 73.67042 Z m 1.61603,-30.49926 -1.92624,-0.8369 -0.85697,-2.05103 -0.85697,-2.05102 v -18.20171 -18.2017 l 0.80769,-1.93308 c 0.98931,-2.36775 53.16909,-92.863213 55.50425,-96.261089 2.12206,-3.087792 5.35613,-5.649728 9.70218,-7.685765 l 3.41947,-1.601953 5.85938,0.02067 5.85937,0.02067 3.3894,1.347367 c 2.09027,0.830929 4.72519,2.584062 6.8744,4.573853 l 3.48498,3.226485 1.89139,3.841957 1.89139,3.841955 0.22994,5.33305 0.22993,5.333051 -1.10871,3.222656 c -0.85231,2.477397 -49.26302,87.220053 -55.56467,97.265623 l -1.28647,2.05079 -6.65715,3.80859 -6.65715,3.80859 53.49888,0.29297 53.49889,0.29297 1.41396,1.644 c 2.47228,2.8745 1.56661,7.26192 -1.83195,8.87464 l -1.91166,0.90714 -63.48567,-0.0229 -63.48567,-0.0229 z m 15.23043,-19.1612 c 3.47858,-2.00076 6.3247,-3.80149 6.3247,-4.00164 0,-0.39793 -12.37099,-7.595 -13.055,-7.595 -0.23186,0 -0.42156,3.42773 -0.42156,7.61718 0,4.18946 0.18611,7.61719 0.41358,7.61719 0.22746,0 3.25969,-1.63698 6.73828,-3.63773 z m 36.92727,-47.56974 c 11.19177,-19.4422 20.47778,-35.715448 20.63557,-36.162788 l 0.28691,-0.81333 -10.38167,-5.961189 -10.38166,-5.961181 -0.72743,0.93938 c -1.91324,2.470747 -41.2198,71.184198 -40.90181,71.502188 0.72387,0.72387 19.96396,11.76664 20.53549,11.78627 0.32226,0.0111 9.74284,-15.88714 20.9346,-35.32935 z M 155.0938,75.930038 c 0.98695,-1.748801 2.09227,-4.362311 2.45625,-5.807795 l 0.66178,-2.628158 -0.91006,-3.130506 -0.91007,-3.1305 -2.22268,-2.159631 c -2.75121,-2.673165 -4.61993,-3.401274 -8.72948,-3.401274 h -3.20786 l -2.28646,1.166467 c -2.39566,1.222176 -4.0767,3.160055 -6.69623,7.719299 l -1.5705,2.733428 5.44642,3.18641 c 12.15297,7.110053 14.85147,8.611201 15.49792,8.621314 0.37207,0.0059 1.484,-1.420253 2.47097,-3.169054 z m -4.90527,85.828842 c -0.64454,-0.26381 -1.69323,-1.05917 -2.33044,-1.76747 l -1.15856,-1.28784 v -2.29695 -2.29695 l 1.61088,-1.61133 1.61089,-1.61132 26.48337,-0.16412 26.48337,-0.16411 1.65639,0.6861 c 4.21563,1.74616 4.31465,8.47157 0.15265,10.36789 l -1.53635,0.70002 -25.90016,-0.0371 c -14.24509,-0.0204 -26.42751,-0.25297 -27.07204,-0.51677 z m 13.2925,-32.54982 c -0.95635,-0.80472 -1.90389,-2.12086 -2.10566,-2.92476 -0.53077,-2.11476 1.02714,-5.34457 3.09337,-6.41305 l 1.77487,-0.91783 h 18.10573 18.10572 l 1.86305,0.64947 c 4.42481,1.54249 4.84934,8.02169 0.6673,10.18431 l -1.71134,0.88497 h -19.02711 -19.02712 z m 52.3325,-98.146261 c -5.79407,-5.800781 -10.73517,-10.546875 -10.98023,-10.546875 -0.24505,0 -0.44556,4.746094 -0.44556,10.546875 v 10.546875 h 10.98023 10.98022 z"
       id="path331" />
    <path
       style="fill:none;stroke-width:0.645649"
       d="M 105.40227,67.073713 C 98.74401,60.35297 93.296343,54.714764 93.296343,54.544367 c 0,-0.170398 1.597982,-0.309815 3.551072,-0.309815 h 3.551075 V 31.120303 c 0,-16.384896 0.2134,-23.3276505 0.73299,-23.8472464 0.84933,-0.8493293 2.45148,0.5672039 13.63271,12.0533074 l 3.71248,3.813712 v 28.137402 c 0,15.475571 -0.21791,28.110033 -0.48424,28.076582 -0.26633,-0.03345 -5.9319,-5.559603 -12.59016,-12.280347 z"
       id="path315"
       inkscape:highlight-color="#e94d35" />
    <path
       style="fill:none;stroke-width:0.645649"
       d="m 30.423625,298.68409 c -3.478337,-1.92819 -3.306349,4.99573 -3.306349,-133.10711 0,-75.998332 0.24046,-128.677707 0.591577,-129.601214 1.313384,-3.454463 1.601319,-3.523454 16.818641,-4.029879 L 58.754098,31.472432 V 21.9673 c 0,-5.227823 0.189805,-11.750518 0.421788,-14.4948763 0.368651,-4.3611286 0.623824,-5.1221228 2.025481,-6.0405241 1.463706,-0.95905695 8.79584,-1.03569883 83.996873,-0.87800915 l 82.39318,0.17277088 22.44113,22.39581167 22.44112,22.395812 -0.16622,109.854085 c -0.15903,105.10497 -0.2169,109.91008 -1.33864,111.14954 -1.09059,1.20505 -2.13447,1.31116 -14.95801,1.52045 -7.58208,0.12373 -13.95265,0.39224 -14.15682,0.59668 -0.20418,0.20443 -0.56338,6.76196 -0.79824,14.57228 l -0.42701,14.20058 -1.89002,1.08471 c -1.74872,1.00364 -9.5484,1.08302 -104.33454,1.06184 C 50.837849,299.5398 31.676593,299.37867 30.423625,298.68409 Z M 230.49685,278.70167 v -9.90363 l -18.50605,-0.42676 c -10.17833,-0.23472 -48.04964,-0.42677 -84.15846,-0.42677 -64.635425,0 -65.675382,-0.0199 -67.135178,-1.28599 l -1.482764,-1.286 L 58.891265,153.9927 58.568133,42.612863 H 48.330725 38.093317 V 165.60908 288.6053 h 96.201763 96.20177 z M 261.48802,155.27869 V 52.943253 h -19.16646 c -18.79004,0 -19.1958,-0.02757 -20.66078,-1.403844 l -1.49432,-1.403845 V 30.878627 11.62169 H 144.9483 69.730139 v 122.99622 122.99621 h 95.878941 95.87894 z M 242.4605,31.010336 c -7.37418,-7.383761 -11.10591,-10.699938 -11.44327,-10.168979 -0.27533,0.433344 -0.50506,5.363939 -0.5105,10.956878 l -0.01,10.168978 H 241.95 253.40316 Z"
       id="path333" />
  </g>
</svg>
