<?xml version="1.0" encoding="UTF-8" standalone="no"?>
<!-- Created with Inkscape (http://www.inkscape.org/) -->

<svg
   version="1.1"
   id="svg9841"
   width="50"
   height="50"
   viewBox="0 0 50 50"
   sodipodi:docname="development.svg"
   inkscape:version="1.2.2 (732a01da63, 2022-12-09)"
   xmlns:inkscape="http://www.inkscape.org/namespaces/inkscape"
   xmlns:sodipodi="http://sodipodi.sourceforge.net/DTD/sodipodi-0.dtd"
   xmlns="http://www.w3.org/2000/svg"
   xmlns:svg="http://www.w3.org/2000/svg">
  <defs
     id="defs9845" />
  <sodipodi:namedview
     id="namedview9843"
     pagecolor="#ffffff"
     bordercolor="#000000"
     borderopacity="0.25"
     inkscape:showpageshadow="2"
     inkscape:pageopacity="0.0"
     inkscape:pagecheckerboard="0"
     inkscape:deskcolor="#d1d1d1"
     showgrid="false"
     inkscape:zoom="6.375"
     inkscape:cx="31.058824"
     inkscape:cy="40.862745"
     inkscape:window-width="1920"
     inkscape:window-height="996"
     inkscape:window-x="-8"
     inkscape:window-y="-8"
     inkscape:window-maximized="1"
     inkscape:current-layer="g9847" />
  <g
     inkscape:groupmode="layer"
     inkscape:label="Image"
     id="g9847">
    <path
       style="fill:#e94d35;stroke:none;stroke-width:0.0976562;fill-opacity:1"
       d="m 4.9804684,12.189338 c 0.401602,-1.059277 1.360479,-2.040176 2.148516,-2.832031 1.665527,-1.6736036 3.4564646,-3.1401563 5.5663286,-4.2243848 8.530078,-4.38348829 19.48496,-4.0628096 27.343751,1.7004687 2.81963,2.0677539 5.24814,4.8953021 6.50156,8.1879781 0.19561,0.514063 0.62383,3.005078 1.4918,2.534473 0.45478,-0.246582 0.27031,-0.873828 0.17314,-1.264941 -0.29883,-1.20254 -0.77138,-2.425489 -1.36074,-3.515625 C 44.470314,8.3825804 40.567384,5.1792015 36.035154,3.1913987 27.837207,-0.40415789 17.5375,0.30447591 10.058594,5.2904027 8.5369434,6.304846 7.0975784,7.4942796 5.8872554,8.8690257 c -0.672461,0.7638086 -1.199482,1.8278323 -1.941748,2.5038083 -0.325791,0.29668 -0.743408,0 -1.113476,-0.04424 -0.567617,-0.06787 -1.143496,0.111328 -1.499131,0.576953 -0.79705996,1.043555 -0.222676,4.378125 1.108506,4.795117 1.211387,0.379494 3.256435,-1.226951 3.752685,-2.265232 0.470479,-0.984375 -0.192148,-2.061035 -1.213623,-2.246094 m 16.3085936,-1.5625 c -0.971777,0.130957 -1.949414,0.538477 -2.832031,0.955176 -0.336328,0.158789 -0.885644,0.603613 -1.269531,0.536328 -0.449414,-0.07881 -0.848438,-0.697559 -1.171875,-0.986231 -0.778125,-0.694531 -1.685938,-1.071396 -2.734375,-0.829394 -1.890234,0.436133 -4.2069626,3.227344 -3.3019536,5.206934 0.3105476,0.679296 1.6965826,1.542089 1.6733406,2.246093 -0.01348,0.406739 -0.419629,0.903125 -0.587305,1.269531 -0.393066,0.858301 -0.782422,1.794532 -0.909082,2.734375 -1.1112206,0 -2.4612596,-0.232324 -3.4178906,0.45293 -0.347441,0.248926 -0.97584,0.806348 -0.609678,1.273828 0.530586,0.677442 1.328955,-0.439257 1.879131,-0.53291 0.843926,-0.143848 2.0517576,0.278906 2.8190426,-0.150683 0.456836,-0.255762 0.488379,-0.982129 0.63252,-1.43379 0.40127,-1.257226 1.090039,-2.312988 1.584668,-3.515625 0.620312,-1.508203 -3.001465,-2.268261 -1.910352,-4.101562 0.244629,-0.411035 0.640625,-0.73916 0.975684,-1.074219 0.288086,-0.288183 0.566895,-0.595312 0.878906,-0.858008 1.831348,-1.542577 2.516211,1.596582 4.003906,1.771387 0.481153,0.05645 1.054493,-0.453613 1.464844,-0.659277 1.119727,-0.561328 2.552442,-0.741113 3.600293,-1.35791 1.393555,-0.820508 -0.739844,-3.8508302 1.575488,-4.2453615 1.123438,-0.1914258 3.511817,-0.3649316 3.865333,1.0522949 0.21123,0.8466602 -0.443457,2.7848636 0.53457,3.2369136 1.064941,0.492188 2.253906,0.650293 3.314941,1.205078 0.446192,0.233301 1.135645,0.829883 1.660156,0.768262 1.35625,-0.159375 1.927442,-2.883496 3.613282,-2.040625 0.82393,0.411914 2.43603,1.900977 2.43291,2.885059 -0.004,1.298828 -2.51113,2.120898 -2.13623,3.320312 0.37695,1.205957 1.1915,2.289453 1.59101,3.515625 0.14444,0.442969 0.18487,1.182032 0.58096,1.478711 0.74492,0.55791 2.13643,0.0069 3.0001,0.222363 1.41719,0.353516 1.24375,2.741895 1.05225,3.865332 -0.39737,2.332032 -3.58116,0.133594 -4.28916,1.665528 -0.5084,1.1 -0.72666,2.307812 -1.2794,3.412597 -0.21221,0.424122 -0.75146,1.072168 -0.69394,1.5625 0.18378,1.564063 3.3957,2.200391 1.68437,4.101563 -0.275,0.305566 -0.57803,0.588379 -0.86865,0.878906 -0.32754,0.327442 -0.65332,0.721582 -1.07422,0.931934 -1.784375,0.89209 -2.352246,-2.303906 -3.808594,-2.029785 -1.248047,0.234863 -2.545508,1.290332 -3.808594,1.681347 -0.433301,0.134082 -1.090527,0.162696 -1.336133,0.601368 -0.655175,1.170312 0.701368,3.475 -1.202929,3.95 -1.107129,0.276171 -3.616797,0.354785 -3.962989,-1.033301 -0.205273,-0.822949 0.417676,-2.685352 -0.444531,-3.193067 -1.116113,-0.657031 -2.611426,-0.848144 -3.795605,-1.473047 -0.381934,-0.201562 -0.905469,-0.655566 -1.367188,-0.524609 -1.135547,0.322266 -1.551562,2.052539 -2.832031,2.151367 -1.041113,0.08027 -2.331445,-1.455371 -2.865918,-2.234082 -1.2752926,-1.857617 2.196191,-2.499121 1.912988,-4.003906 -0.235644,-1.251953 -1.289941,-2.544434 -1.681347,-3.808594 -0.134082,-0.433301 -0.162696,-1.090527 -0.601368,-1.336133 -0.721289,-0.403808 -1.9220306,-0.05381 -2.7213866,-0.139257 -0.584492,-0.0625 -1.440302,-1.2292 -1.976787,-0.544336 -0.366181,0.46748 0.262256,1.024902 0.609678,1.273828 0.956631,0.685254 2.30667,0.452929 3.4178906,0.452929 0.130957,0.971778 0.538477,1.949415 0.955176,2.832032 0.158789,0.336328 0.603613,0.885644 0.536328,1.269531 -0.07881,0.449414 -0.697656,0.848437 -0.986231,1.171875 -0.6945306,0.778125 -1.0713956,1.685938 -0.8293946,2.734375 0.4361336,1.890234 3.2273446,4.206934 5.2069346,3.301953 0.679296,-0.310547 1.542089,-1.696582 2.246093,-1.67334 0.406739,0.01348 0.903125,0.419629 1.269531,0.587305 0.858301,0.393066 1.794532,0.782422 2.734375,0.909082 0,1.155078 -0.241699,2.546973 0.526368,3.515234 1.2208,1.538868 5.28916,1.512793 6.442578,-0.09736 0.685254,-0.956641 0.452929,-2.306641 0.452929,-3.417871 0.939844,-0.12666 1.876075,-0.516016 2.734375,-0.909082 0.366407,-0.167676 0.862793,-0.573828 1.269532,-0.587305 0.704004,-0.02324 1.566797,1.362793 2.246093,1.67334 1.979587,0.904981 4.770797,-1.411719 5.206937,-3.301953 0.24199,-1.048437 -0.13487,-1.95625 -0.8294,-2.734375 -0.28857,-0.323438 -0.90742,-0.722461 -0.98623,-1.171875 -0.0673,-0.383887 0.37754,-0.933203 0.53633,-1.269531 0.4167,-0.882617 0.82422,-1.860254 0.95518,-2.832032 1.15507,0 2.54697,0.2417 3.51523,-0.526367 1.53887,-1.2208 1.51279,-5.28916 -0.0974,-6.442578 -0.95664,-0.685254 -2.30664,-0.45293 -3.41787,-0.45293 -0.13096,-0.971777 -0.53848,-1.949414 -0.95518,-2.832031 -0.15879,-0.336328 -0.60361,-0.885644 -0.53633,-1.269531 0.0788,-0.449414 0.69756,-0.848438 0.98624,-1.171875 0.69453,-0.778125 1.07138,-1.685938 0.82939,-2.734375 -0.43613,-1.890234 -3.22734,-4.2069529 -5.206934,-3.301953 -0.679296,0.310547 -1.542089,1.696582 -2.246093,1.67334 -0.406739,-0.01348 -0.903125,-0.419532 -1.269532,-0.587305 -0.8583,-0.392969 -1.794531,-0.782422 -2.734375,-0.909082 0,-1.1551268 0.2417,-2.5469725 -0.526367,-3.5152537 -1.2208,-1.538877 -5.28916,-1.512793 -6.442578,0.097363 -0.685257,0.9566672 -0.452933,2.3066379 -0.452933,3.4178877 M 2.4558294,12.545197 c 0.449326,-0.170214 2.595869,0.611524 2.663095,1.119532 0.08019,0.605859 -1.471298,1.722558 -1.993584,1.86582 -0.850654,0.233203 -1.278964,-2.75459 -0.669511,-2.985352 m 21.8605366,2.712891 c -2.023828,0.266504 -3.923535,0.790137 -5.566406,2.074609 -1.062207,0.830567 -2.021973,1.862403 -2.658008,3.059766 -3.911426,7.362598 1.936524,16.342676 10.372852,15.206152 4.960156,-0.668164 8.788281,-5.138086 8.788281,-10.128027 0,-5.567285 -5.15459,-10.973926 -10.936719,-10.2125 m -0.09766,1.158301 c 1.089551,-0.130274 2.272754,0.02461 3.320312,0.335547 7.169727,2.128027 8.769136,11.751464 2.734375,16.125097 -1.31914,0.956055 -2.888769,1.455957 -4.492187,1.647754 -1.019141,0.121875 -2.1375,-0.01699 -3.125,-0.280273 -7.156348,-1.908301 -9.11123,-11.604102 -3.125,-16.051465 1.381543,-1.026367 2.990234,-1.573633 4.6875,-1.77666 M 5.9792954,24.566975 c -0.603291,0.268652 -0.477226,2.183105 0.453018,1.819726 0.726738,-0.283789 0.500723,-2.244433 -0.453018,-1.819726 M 45.019494,38.751838 c -0.40157,1.059277 -1.36045,2.040137 -2.14854,2.832031 -1.71885,1.727246 -3.57207,3.226074 -5.76162,4.320996 -8.518944,4.260059 -19.332421,3.934766 -27.1484366,-1.79707 -2.851123,-2.090918 -5.186836,-4.894824 -6.503935,-8.187988 -0.20626,-0.515723 -0.604561,-3.014063 -1.489415,-2.534473 -0.454834,0.246484 -0.270312,0.873926 -0.173154,1.264941 0.298779,1.20254 0.771397,2.425489 1.360703,3.515625 2.372285,4.388477 6.280801,7.597559 10.8097076,9.583887 8.143359,3.57168 18.431836,2.91084 25.87891,-2.031836 1.55615,-1.03291 3.03457,-2.238574 4.26894,-3.645801 0.671,-0.765039 1.19912,-1.827441 1.9418,-2.503808 0.32578,-0.29668 0.74345,0 1.11347,0.04424 0.56758,0.06787 1.14346,-0.111328 1.49913,-0.576953 0.79707,-1.043555 0.22265,-4.378125 -1.1085,-4.795117 -1.21143,-0.379492 -3.25645,1.226953 -3.75264,2.265234 -0.47051,0.984375 0.19209,2.061035 1.21358,2.246094 m 1.95127,-3.361523 c 0.74765,-0.08252 1.21269,2.893847 0.48437,3.028418 -0.45674,0.08438 -2.5084,-0.645508 -2.57412,-1.142286 -0.0787,-0.594922 1.54766,-1.826367 2.08975,-1.886132 z"
       id="path11057" />
  </g>
</svg>
