<?xml version="1.0" encoding="UTF-8" standalone="no"?>
<!-- Created with Inkscape (http://www.inkscape.org/) -->

<svg
   version="1.1"
   id="svg1825"
   width="50"
   height="50"
   viewBox="0 0 50 50"
   sodipodi:docname="post.svg"
   inkscape:version="1.2.2 (732a01da63, 2022-12-09)"
   xmlns:inkscape="http://www.inkscape.org/namespaces/inkscape"
   xmlns:sodipodi="http://sodipodi.sourceforge.net/DTD/sodipodi-0.dtd"
   xmlns="http://www.w3.org/2000/svg"
   xmlns:svg="http://www.w3.org/2000/svg">
  <defs
     id="defs1829" />
  <sodipodi:namedview
     id="namedview1827"
     pagecolor="#ffffff"
     bordercolor="#000000"
     borderopacity="0.25"
     inkscape:showpageshadow="2"
     inkscape:pageopacity="0.0"
     inkscape:pagecheckerboard="0"
     inkscape:deskcolor="#d1d1d1"
     showgrid="false"
     inkscape:zoom="8.7614949"
     inkscape:cx="52.616591"
     inkscape:cy="25.737617"
     inkscape:window-width="1920"
     inkscape:window-height="996"
     inkscape:window-x="-8"
     inkscape:window-y="-8"
     inkscape:window-maximized="1"
     inkscape:current-layer="g1831" />
  <g
     inkscape:groupmode="layer"
     inkscape:label="Image"
     id="g1831">
    <path
       style="fill:#e94d35;stroke:none;stroke-width:0.0976562;fill-opacity:1"
       d="m 7.9772534,42.346063 c 0,1.26084 0.328389,2.775293 0.618487,4.003907 0.113789,0.481933 0.423633,0.85 0.944014,0.878906 0.7273426,0.04043 1.5984366,-0.880957 2.1484366,-1.28584 1.545215,-1.137402 3.051172,-2.466797 4.6875,-3.466797 1.138574,-0.6958 3.665429,0.66836 4.557324,-0.520801 0.865137,-1.153515 -0.600781,-1.5625 -1.432324,-1.5625 -1.048438,0 -2.621094,-0.298144 -3.613281,0.03252 -0.545215,0.181738 -1.106055,0.731934 -1.5625,1.074219 -1.300879,0.975683 -2.651075,2.269531 -4.101563,2.994824 0,-0.872559 -0.134473,-3.424707 -0.8789056,-3.971387 -0.37291,-0.273828 -1.122822,-0.130176 -1.5625,-0.130176 -1.465723,0 -4.904297,0.659668 -5.631514,-0.976562 -0.317451,-0.714258 -0.130205,-1.770312 -0.130205,-2.539063 v -5.46875 -8.984375 c 0,-1.017968 -0.316045,-2.595312 0.423174,-3.40166 0.585498,-0.638769 1.432432,-0.50459 2.213545,-0.50459 h 4.980469 20.8984366 c -0.655273,0.830079 -1.198047,1.824317 -1.741504,2.734375 -0.201172,0.336719 -0.473144,1.016309 -0.813867,1.220704 -0.286035,0.171679 -0.925391,0.04883 -1.253223,0.04883 H 23.504597 11.590535 8.2702224 c -0.480986,0 -1.149277,-0.07559 -1.5625,0.227832 -0.569844,0.418554 -0.462763,1.407715 0.195313,1.676465 0.946103,0.386425 2.684375,0.04883 3.7109366,0.04883 h 16.113281 c -0.56123,1.421679 -2.148437,2.608105 -2.148437,4.199218 h -14.0625 c -0.9824406,0 -4.1992186,-0.547851 -4.1992186,0.976563 0,1.510254 3.235791,0.976562 4.1992186,0.976562 h 14.0625 c 0,1.000196 0.09766,2.013477 0.09766,3.027344 0,0.242774 0.136816,0.879883 -0.01631,1.05791 -0.16123,0.1875 -0.546582,0.113965 -0.764941,0.113965 h -2.246097 -9.082031 c -1.765137,0 -3.7228116,-0.24248 -5.4687496,0 -0.508857,0.0707 -0.894082,0.673438 -0.748701,1.171875 0.309805,1.062207 1.852705,0.78125 2.701826,0.78125 h 8.1054686 5.761718 c 0.898829,0 1.952442,0.150684 2.832032,-0.03252 1.432812,-0.298535 2.883886,-1.185547 4.199218,-1.806641 0.980665,-0.463086 2.414356,-0.764941 3.222657,-1.497461 0.545117,-0.494043 0.918652,-1.407031 1.302051,-2.034473 1.121093,-1.834472 2.297265,-3.634863 3.417968,-5.46875 0.800879,-1.310449 1.641016,-2.596386 2.441407,-3.90625 0.284765,-0.466015 0.707812,-0.938183 0.846386,-1.464843 0.485352,1.152734 0.09766,3.224511 0.09766,4.492187 v 10.546875 c 0,1.319434 0.498731,3.721778 -0.78125,4.557324 -0.696582,0.454688 -1.939453,0.227832 -2.734375,0.227832 h -6.640625 c -0.916308,0 -2.828808,-0.405175 -3.09248,0.78125 -0.357227,1.607813 2.611816,1.171875 3.483105,1.171875 h 7.128907 c 1.49082,0 3.031836,-0.112011 3.971386,-1.464843 1.049122,-1.51084 0.618457,-3.914258 0.618457,-5.664063 V 22.033563 c 0,-0.807714 0.132129,-1.748437 -0.03252,-2.539062 -0.08604,-0.412793 -0.491309,-1.066309 -0.341797,-1.464844 0.393555,-1.049609 1.318164,-2.068261 1.904297,-3.027344 1.178809,-1.929003 2.401859,-3.832715 3.580669,-5.7617186 0.74931,-1.2260745 1.8746,-2.4679885 1.72529,-4.0039065 C 49.880872,3.3214438 48.065342,2.5804574 46.649132,1.6559555 45.815632,1.1118442 44.938581,0.45340662 43.914753,0.35387542 41.546199,0.12360202 40.62696,2.4191977 39.552742,4.0648129 37.581355,7.0849106 35.67198,10.16657 33.791023,13.244501 c -0.480176,0.785742 -0.984278,1.557422 -1.464844,2.34375 -0.169336,0.277148 -0.345996,0.754492 -0.634766,0.927734 -0.376269,0.225782 -1.305273,0.04883 -1.741504,0.04883 H 25.457722 8.6608474 c -2.193672,0 -6.069853,-0.76455 -7.68229201,1.074219 -1.275314,1.454295 -0.911458,3.57949 -0.911458,5.371092 v 12.597656 c 0,1.691211 -0.434369,4.101172 0.78125,5.46875 1.67558601,1.885059 4.85768601,1.269531 7.12890601,1.269531 M 43.426472,2.3232797 c 1.159766,-0.193291 2.756152,1.3503223 3.71094,1.9205664 0.40342,0.240957 0.82236,0.5063965 0.94404,0.9928418 0.18799,0.7518945 -0.37432,1.3533789 -0.73242,1.953125 -0.19619,0.3283887 -0.5332,1.1624023 -0.895216,1.3183594 C 46.054402,8.6802426 44.950105,7.7091293 44.598347,7.4990609 43.807722,7.0268734 43.045124,6.5063363 42.254597,6.0342172 41.972175,5.8655258 41.388093,5.6160043 41.229206,5.3180649 41.087117,5.0516 41.458601,4.6708774 41.587312,4.4554379 42.004597,3.7566 42.538191,2.4713266 43.426472,2.3232797 m 1.953125,7.8938763 -1.269531,2.148439 -2.246094,-1.334669 -3.125,-1.9856446 1.367187,-2.0345017 1.464844,0.8300781 3.808594,2.3762982 m -5.859375,1.562501 c -0.336621,1.599024 -2.04248,3.386719 -2.897168,4.785156 -1.601074,2.62002 -3.281348,5.191993 -4.882812,7.8125 -0.591114,0.967286 -1.231836,2.502149 -2.083301,3.222657 -0.526856,-1.053711 -0.945899,-0.807715 -1.953125,-0.78125 l 0.944043,-1.660157 1.953125,-3.125 7.063769,-11.328125 1.855469,1.074219 m -6.542969,18.359375 c -0.666797,-0.77207 -0.303125,-1.500586 -1.660156,-1.464844 l 7.161426,-11.523437 2.604199,-4.199219 c 0.374121,0.02949 1.916895,0.738867 1.904297,1.171875 -0.0095,0.32627 -0.520996,0.897852 -0.699902,1.171875 -0.631641,0.967676 -1.253028,1.943848 -1.855469,2.929688 -2.433594,3.982226 -4.818946,8.062207 -7.454395,11.914062 m -5.078125,-1.367187 c 0.23418,0.55625 0.178809,1.338769 0.520801,1.855468 0.569824,0.860743 1.814648,0.326172 2.604199,0.09766 l 0.390625,1.464843 -1.953125,0.846387 -1.269531,-0.651077 -1.611328,-1.074219 -0.04883,-2.246094 1.367187,-0.292968 m -3.613281,11.653613 c -1.192871,0.364551 -0.595801,2.183887 0.585937,1.839258 1.217579,-0.355176 0.650391,-2.216992 -0.585937,-1.839258 z"
       id="path3032" />
  </g>
</svg>
