<?xml version="1.0" encoding="UTF-8" standalone="no"?>
<!-- Created with Inkscape (http://www.inkscape.org/) -->

<svg
   version="1.1"
   id="svg3471"
   width="300"
   height="300"
   viewBox="0 0 300 300"
   sodipodi:docname="smm.svg"
   inkscape:version="1.2.2 (732a01da63, 2022-12-09)"
   xmlns:inkscape="http://www.inkscape.org/namespaces/inkscape"
   xmlns:sodipodi="http://sodipodi.sourceforge.net/DTD/sodipodi-0.dtd"
   xmlns="http://www.w3.org/2000/svg"
   xmlns:svg="http://www.w3.org/2000/svg">
  <defs
     id="defs3475" />
  <sodipodi:namedview
     id="namedview3473"
     pagecolor="#ffffff"
     bordercolor="#000000"
     borderopacity="0.25"
     inkscape:showpageshadow="2"
     inkscape:pageopacity="0.0"
     inkscape:pagecheckerboard="0"
     inkscape:deskcolor="#d1d1d1"
     showgrid="false"
     inkscape:zoom="1.59375"
     inkscape:cx="198.90196"
     inkscape:cy="172.23529"
     inkscape:window-width="1904"
     inkscape:window-height="980"
     inkscape:window-x="0"
     inkscape:window-y="0"
     inkscape:window-maximized="0"
     inkscape:current-layer="g3477" />
  <g
     inkscape:groupmode="layer"
     inkscape:label="Image"
     id="g3477">
    <path
       style="fill:#424242;stroke-width:0.585938;fill-opacity:1"
       d="M 62.48217,247.86577 C 52.26219,246.32034 43.05352,237.64965 40.71567,227.3709 l -0.91344,-4.01607 v -26.10504 -26.10503 l -4.24804,-0.0102 c -10.17111,-0.0243 -18.502,-3.43838 -25.7040202,-10.53361 l -4.46378,-4.3976 -2.3682,-4.98047 c -3.3863,-7.12161 -3.64564002,-9.09398 -3.64564002,-27.72616 V 106.96105 L 0.5771398,102.57829 C 3.5460998,91.776164 12.18752,82.479494 22.97248,78.484804 l 3.64616,-1.35052 27.61422,-0.18928 27.61423,-0.18928 48.76508,-19.79095 48.76508,-19.79096 2.13615,-4.04654 c 12.29631,-23.2930803 47.09424,-18.52798 52.54512,7.19533 l 0.84056,3.96669 v 78.515616 78.51563 l -0.82244,3.88008 c -5.34763,25.22895 -37.90684,30.97663 -51.77968,9.14066 l -2.31621,-3.64574 -42.63777,-17.28516 c -23.45077,-9.50683 -42.86203,-17.37304 -43.13613,-17.48046 -0.27411,-0.10743 -0.5015,10.83495 -0.50532,24.3164 l -0.007,24.51172 -0.818,3.0727 c -3.6215,13.60363 -16.5535,22.128 -30.39441,20.03503 z M 69.984,228.30893 c 1.11052,-0.46401 2.55127,-1.71646 3.20165,-2.78321 l 1.18251,-1.93956 0.002,-26.2207 0.002,-26.2207 h -7.61719 -7.61718 l 0.002,26.2207 0.002,26.2207 1.18122,1.93744 c 1.98014,3.24781 5.86946,4.36921 9.66023,2.78533 z M 210.68094,207.6896 c 1.17698,-0.55851 2.61542,-1.98338 3.46394,-3.43128 l 1.45111,-2.47614 -0.15273,-79.43599 -0.15274,-79.435986 -1.20808,-1.618 c -4.29451,-5.75172 -11.29896,-5.58994 -15.34466,0.35441 l -1.31836,1.93707 v 79.170536 79.17054 l 1.08493,2.04164 c 2.29033,4.30998 7.55057,5.91839 12.17659,3.7232 z M 177.85369,58.805594 c -0.12921,-0.12921 -19.04881,7.39785 -42.04358,16.72679 l -41.80866,16.96172 -0.15152,31.304186 -0.15152,31.30419 42.04606,17.05545 42.04605,17.05545 0.14904,-65.08644 c 0.082,-35.797536 0.0434,-65.192156 -0.0859,-65.321346 z M 74.37255,123.65113 V 95.493444 l -21.82618,0.17917 -21.82617,0.17918 -2.63672,1.23892 c -3.31018,1.55536 -6.6174,4.874716 -8.33992,8.370536 l -1.32805,2.69523 v 15.52734 15.52734 l 1.34698,2.92239 c 1.45104,3.14814 2.94919,4.98829 5.61693,6.89912 3.63189,2.60143 4.84987,2.72343 27.45992,2.75043 l 21.53321,0.0257 z m 197.43834,58.75234 c -23.96994,-12.36176 -29.40985,-18.61538 -22.77078,-26.17687 4.71458,-5.36961 24.6203,1.39945 34.33023,11.67419 7.13853,7.55377 -2.23359,19.3122 -11.55945,14.50268 z m -9.63343,-51.25477 c -6.23008,-3.57063 -6.45647,-12.61839 -0.40982,-16.37833 l 2.15569,-1.34046 h 14.35547 14.35547 l 2.04879,1.20356 c 6.18309,3.63223 6.38525,11.88194 0.39994,16.32069 l -1.65283,1.22575 -14.46045,0.15261 -14.46045,0.1526 z m -8.2767,-38.488186 c -7.09695,-1.69521 -9.66341,-11.44948 -4.26193,-16.19821 2.87142,-2.52442 23.36716,-13.82758 25.62147,-14.12995 8.61823,-1.15594 13.98309,9.93144 7.76953,16.05702 -3.17858,3.13357 -25.14803,15.1425 -27.01279,14.76572 -0.16326,-0.033 -1.11558,-0.25555 -2.11628,-0.49458 z"
       id="path5776" />
  </g>
</svg>
